<?xml version="1.0" standalone="no"?>
<!DOCTYPE svg PUBLIC "-//W3C//DTD SVG 20010904//EN"
 "http://www.w3.org/TR/2001/REC-SVG-20010904/DTD/svg10.dtd">
<svg version="1.0" xmlns="http://www.w3.org/2000/svg"
 width="622.000000pt" height="800.000000pt" viewBox="0 0 622.000000 800.000000"
 preserveAspectRatio="xMidYMid meet">
<metadata>
Created by potrace 1.16, written by Peter Selinger 2001-2019
</metadata>
<g transform="translate(0.000000,800.000000) scale(0.100000,-0.100000)"
fill="#000000" stroke="none">
<path d="M1649 7379 c-23 -14 -63 -61 -113 -133 -42 -61 -105 -147 -141 -191
-81 -100 -177 -289 -206 -404 -41 -162 -14 -375 61 -494 16 -26 30 -50 30 -52
0 -3 -21 -5 -47 -5 -69 0 -125 -36 -158 -104 -27 -56 -36 -128 -22 -178 7 -27
6 -28 -27 -28 -98 0 -234 -94 -275 -190 -12 -27 -28 -87 -37 -132 -25 -130
-53 -181 -118 -215 -23 -12 -47 -14 -102 -9 -82 8 -92 1 -70 -43 19 -36 86
-70 154 -78 41 -5 60 -1 108 22 68 32 116 38 109 15 -2 -8 -20 -73 -41 -145
-20 -71 -48 -152 -62 -179 -37 -68 -103 -122 -176 -145 -72 -22 -80 -44 -26
-75 29 -17 52 -21 131 -21 l96 1 -32 -46 c-79 -110 -144 -296 -152 -431 -5
-74 -2 -100 21 -180 29 -103 66 -171 109 -203 28 -21 29 -21 42 -2 14 18 15
18 26 -10 6 -16 16 -56 22 -89 l10 -60 -52 -106 c-29 -58 -53 -121 -54 -140
-2 -31 0 -34 24 -32 26 1 26 1 17 -40 -5 -23 -8 -78 -6 -122 5 -94 34 -158
108 -237 58 -62 73 -55 60 25 -9 58 -8 73 13 115 19 40 25 23 20 -65 -10 -165
34 -372 80 -381 10 -2 17 3 17 12 0 9 5 16 10 16 6 0 10 -11 10 -25 0 -37 23
-87 72 -157 43 -61 43 -61 42 -147 -1 -60 -8 -104 -22 -145 -37 -100 -11 -103
80 -8 l65 67 6 -75 c9 -129 55 -208 191 -327 101 -88 124 -132 133 -253 3 -50
10 -93 15 -96 18 -11 51 36 78 110 l11 30 23 -50 c33 -70 75 -118 92 -104 9 9
20 7 41 -8 15 -10 41 -27 56 -36 18 -11 38 -39 53 -73 14 -32 30 -53 37 -50
14 4 16 87 4 127 l-8 25 18 -25 c10 -14 49 -56 87 -94 76 -77 116 -149 116
-211 0 -35 -18 -132 -35 -191 -9 -29 18 -38 56 -18 43 22 108 82 126 117 l15
30 19 -44 c33 -72 88 -129 191 -195 100 -65 123 -91 113 -123 -3 -10 1 -24 9
-30 13 -11 19 -7 35 20 11 18 25 54 32 81 8 36 14 47 22 39 6 -6 21 -11 32
-11 16 0 31 -17 60 -70 21 -39 59 -96 85 -128 44 -55 129 -122 155 -122 26 0
111 67 158 125 26 33 65 90 85 127 27 50 43 68 57 68 12 0 26 5 32 11 8 8 14
-3 22 -39 16 -66 46 -113 67 -105 10 3 14 13 10 25 -10 40 13 67 113 132 100
65 164 130 190 195 8 17 16 31 20 30 3 0 20 -19 36 -42 27 -36 115 -107 134
-107 3 0 12 4 19 8 10 7 8 27 -9 98 -36 151 -21 203 95 324 39 41 79 86 89
100 l17 25 -7 -30 c-12 -48 -9 -118 5 -122 7 -3 21 16 34 47 17 42 32 59 81
91 44 30 63 37 72 29 17 -15 55 25 86 91 12 27 25 49 28 49 3 0 14 -19 24 -43
9 -23 26 -53 37 -67 28 -37 41 -16 45 80 6 118 31 166 140 260 130 113 175
192 183 320 l4 76 66 -68 c96 -100 112 -94 76 31 -39 135 -32 186 40 291 20
28 41 71 47 93 6 23 15 51 19 62 8 19 9 19 9 -2 1 -39 31 -26 52 22 36 81 51
180 47 312 -3 117 -2 122 14 101 23 -31 29 -74 18 -128 -16 -85 15 -80 92 15
67 82 82 134 76 260 l-6 102 26 -5 c24 -5 25 -3 19 34 -4 21 -29 85 -57 141
-27 56 -50 113 -50 126 0 14 9 55 21 93 17 54 23 64 31 51 13 -25 30 -21 65
16 41 42 66 94 93 192 32 114 25 234 -20 365 -39 113 -70 178 -116 243 l-34
47 69 -6 c79 -8 161 8 186 36 26 28 15 41 -51 61 -122 37 -180 118 -238 325
-18 66 -36 128 -39 139 -6 17 -2 20 21 19 16 0 54 -13 85 -29 49 -23 66 -27
109 -22 92 11 180 72 164 113 -5 12 -20 14 -79 8 -78 -7 -101 -1 -145 40 -37
32 -51 68 -73 179 -25 121 -66 205 -121 249 -51 40 -143 77 -191 78 -35 0 -38
2 -30 23 17 46 7 123 -23 183 -35 72 -84 104 -156 104 -27 0 -48 2 -48 4 0 3
13 26 30 53 52 85 72 156 77 288 5 101 2 134 -15 205 -30 118 -125 304 -209
409 -38 46 -95 123 -128 171 -88 127 -87 126 -128 150 -34 20 -43 21 -77 11
-57 -17 -118 -84 -214 -237 -62 -101 -112 -166 -179 -235 -107 -111 -119 -116
-248 -98 l-85 12 -1 34 c-1 18 -6 40 -13 48 -10 13 -18 11 -57 -12 -52 -30
-97 -33 -166 -9 -26 9 -58 16 -71 16 -16 0 -23 5 -22 17 3 47 -160 65 -244 27
-25 -12 -53 -29 -63 -38 -16 -16 -19 -16 -49 7 -53 38 -98 52 -173 51 -78 0
-141 -24 -131 -50 4 -10 -2 -14 -18 -14 -13 0 -43 -7 -67 -16 -70 -25 -122
-21 -170 11 -40 26 -43 27 -56 9 -7 -10 -13 -32 -13 -49 l0 -31 -84 -13 c-130
-20 -144 -14 -253 99 -66 69 -118 136 -174 226 -100 161 -117 183 -166 217
-54 38 -90 42 -134 16z m118 -55 c32 -24 108 -130 186 -259 19 -33 77 -105
128 -160 51 -55 109 -122 129 -150 80 -106 161 -303 138 -332 -19 -23 -55 36
-60 98 -6 82 -68 179 -192 307 -120 123 -169 157 -75 51 131 -146 219 -291
219 -361 0 -16 -4 -19 -22 -14 -13 3 -35 6 -51 6 -24 0 -26 2 -15 19 10 16 6
28 -23 76 -19 31 -46 71 -62 88 l-27 32 20 -55 19 -55 -39 45 c-22 25 -58 81
-81 125 l-40 80 6 -50 c4 -27 13 -74 21 -104 9 -29 13 -55 11 -57 -8 -8 -97
131 -123 191 -20 47 -24 52 -19 25 3 -19 8 -69 11 -110 l5 -75 -24 72 c-25 73
-68 158 -126 248 -19 29 -29 40 -25 25 19 -66 24 -101 24 -177 0 -92 -16 -112
-26 -33 -13 100 -28 56 -37 -110 l-2 -44 -24 69 c-25 74 -47 121 -36 75 11
-45 18 -220 9 -220 -5 0 -22 42 -38 92 -28 87 -49 112 -27 31 15 -53 14 -102
-5 -202 -9 -47 -14 -106 -11 -130 5 -43 4 -44 -9 -21 -14 25 -15 24 -8 -10 3
-19 15 -55 25 -79 23 -53 23 -57 3 -40 -15 12 -16 11 -9 -11 4 -14 14 -38 22
-55 l15 -30 -31 29 c-40 39 -39 28 5 -42 42 -67 108 -138 147 -158 22 -12 27
-21 27 -54 0 -22 -3 -40 -6 -40 -13 0 -92 61 -131 102 -81 84 -192 277 -244
423 -27 76 -23 20 6 -79 29 -101 80 -207 140 -292 46 -64 145 -161 195 -191
32 -19 39 -33 15 -33 -8 0 -40 26 -72 58 -32 31 -90 87 -130 123 -92 85 -184
223 -209 315 -14 52 -19 101 -18 194 0 108 4 136 27 205 35 104 123 263 192
345 30 36 85 110 122 165 37 55 78 110 91 122 33 30 77 29 119 -3z m2815 3
c13 -13 49 -59 78 -102 29 -44 86 -120 125 -170 79 -98 169 -260 206 -370 21
-61 24 -88 23 -210 0 -125 -3 -147 -26 -207 -36 -94 -110 -201 -198 -283 -41
-38 -101 -96 -133 -128 -34 -35 -64 -57 -74 -55 -12 2 -3 14 34 40 72 54 172
163 216 237 65 109 98 199 133 359 9 44 -4 20 -31 -55 -71 -201 -205 -403
-322 -484 -23 -16 -44 -29 -47 -29 -3 0 -6 18 -6 40 0 33 4 42 29 54 40 21
132 126 166 188 l28 53 -38 -35 -37 -35 21 42 c25 51 28 71 6 53 -11 -9 -8 7
10 54 28 73 34 118 11 76 -13 -23 -14 -21 -9 22 3 25 -3 89 -12 142 -16 90
-16 135 0 213 12 55 -18 -8 -41 -87 -16 -55 -24 -70 -30 -57 -7 19 1 162 12
207 11 45 -14 0 -38 -70 l-23 -65 -2 45 c-2 25 -6 74 -9 110 -7 68 -16 64 -29
-12 -3 -21 -10 -38 -15 -38 -16 0 -12 162 5 216 23 75 19 74 -29 -2 -62 -100
-86 -148 -113 -229 l-23 -70 6 80 c3 44 8 91 11 105 3 14 -16 -15 -41 -65 -43
-83 -119 -188 -101 -140 8 24 34 164 34 185 0 8 -9 -7 -20 -34 -20 -50 -58
-107 -109 -166 l-30 -35 20 49 c11 27 19 51 16 53 -5 6 -70 -84 -96 -135 -18
-34 -20 -45 -10 -57 11 -13 8 -15 -16 -15 -16 0 -40 -3 -53 -7 -23 -6 -24 -5
-16 33 16 86 80 190 211 340 89 101 51 79 -62 -38 -138 -142 -204 -250 -204
-335 0 -41 -41 -98 -58 -81 -25 25 69 247 148 347 20 25 76 88 123 140 54 58
120 147 176 235 49 77 100 151 113 162 55 50 101 57 140 21z m-1997 -491 c17
-4 54 0 85 9 106 30 125 30 174 1 26 -15 46 -31 46 -36 0 -5 17 -21 38 -36 34
-24 35 -26 9 -20 -15 4 -36 15 -47 26 -27 27 -97 34 -182 19 l-73 -13 55 -12
c53 -11 54 -11 20 -15 -35 -5 -35 -5 -10 -16 18 -9 20 -12 8 -12 -20 -1 -23
-12 -8 -27 6 -6 8 -18 4 -27 -4 -13 -10 -14 -24 -7 -10 6 -27 10 -37 10 -29 0
-86 57 -80 80 3 13 -5 27 -29 45 -19 14 -34 35 -34 46 0 18 2 18 28 5 15 -7
41 -16 57 -20z m979 9 c59 -17 79 -15 158 20 29 12 2 -50 -27 -63 -17 -8 -25
-20 -25 -38 0 -30 -52 -84 -82 -84 -10 0 -28 -4 -38 -10 -22 -12 -37 15 -20
35 8 10 8 15 -1 21 -8 4 -4 11 12 20 23 13 23 13 -16 15 -40 1 -40 1 15 13
l55 12 -73 13 c-85 15 -150 8 -180 -19 -11 -11 -33 -22 -49 -26 -27 -6 -26 -5
10 20 20 15 37 31 37 36 0 5 19 21 43 35 47 29 80 29 181 0z m-365 -66 c17
-17 31 -40 31 -51 0 -17 -4 -15 -26 12 -27 31 -48 35 -23 3 9 -11 10 -14 2 -9
-7 4 -13 3 -13 -1 0 -5 6 -15 13 -22 10 -11 9 -13 -5 -8 -12 4 -15 0 -13 -16
1 -12 6 -29 9 -38 10 -23 -17 -41 -61 -41 -38 0 -69 25 -56 45 11 19 12 57 0
50 -7 -4 -8 0 -4 11 4 10 3 15 -3 11 -6 -3 -10 -2 -10 4 0 5 5 13 10 16 6 3
10 12 10 18 -1 7 -14 -4 -30 -23 -25 -28 -30 -31 -30 -15 1 47 54 84 122 85
39 0 52 -5 77 -31z m-720 -2 c23 -11 88 -107 74 -107 -4 0 -22 14 -40 32 -27
26 -41 32 -90 35 l-58 4 49 -20 c56 -23 104 -61 53 -42 -16 6 -43 11 -60 11
l-32 0 43 -20 c43 -20 57 -36 22 -26 -68 20 -67 20 -30 -18 l35 -37 -39 16
-38 16 21 -34 c15 -24 18 -36 10 -39 -9 -3 -9 -10 0 -27 8 -14 9 -27 3 -33 -5
-5 -19 19 -36 66 -15 41 -47 106 -71 145 l-44 71 37 1 c20 0 55 4 77 8 59 13
87 12 114 -2z m1438 -3 l62 -7 -19 -27 c-29 -41 -110 -211 -110 -231 0 -10 -4
-20 -9 -24 -16 -9 -22 14 -10 37 9 17 9 23 0 26 -8 3 -4 15 10 39 22 35 22 35
1 24 -38 -20 -46 -11 -16 20 31 33 31 33 -33 14 -38 -11 -26 5 20 25 l42 20
-32 0 c-17 0 -44 -5 -60 -11 -51 -19 -3 19 53 42 l49 20 -58 -4 c-49 -3 -63
-9 -90 -35 -35 -34 -61 -45 -35 -14 9 9 19 27 23 40 11 37 63 64 110 58 22 -4
68 -9 102 -12z m-977 -67 c55 -28 60 -109 9 -163 -29 -31 -79 -33 -86 -4 -3
11 -9 17 -14 14 -5 -3 -9 -1 -9 4 0 5 10 14 23 21 19 10 18 11 -17 7 l-39 -5
23 24 22 24 -22 -6 c-17 -4 -21 -2 -18 8 4 13 30 29 73 45 18 7 17 8 -7 12
-59 8 -117 -51 -103 -105 3 -13 2 -23 -3 -23 -9 0 -32 58 -32 81 0 57 132 100
200 66z m509 -12 c42 -21 52 -49 33 -97 -19 -47 -33 -50 -25 -5 7 45 -28 85
-79 94 -25 4 -38 2 -38 -6 0 -6 9 -11 19 -11 11 0 33 -12 48 -26 l28 -25 -28
4 -28 4 22 -23 22 -23 -39 5 c-37 5 -38 5 -15 -9 16 -9 20 -17 12 -21 -6 -4
-9 -11 -6 -16 3 -4 -9 -13 -26 -19 -29 -10 -34 -8 -65 23 -28 28 -34 42 -34
76 0 49 13 78 43 91 30 13 118 4 156 -16z m-758 -86 c19 -21 29 -42 29 -63 0
-18 5 -37 12 -44 9 -9 8 -12 -5 -12 -10 0 -31 -7 -47 -15 -29 -15 -30 -15 -30
5 0 12 -4 18 -10 15 -14 -9 -12 8 3 25 6 8 0 4 -15 -9 -32 -28 -35 -22 -11 17
l17 27 -32 -29 c-34 -32 -42 -25 -16 12 16 23 6 30 -14 10 -23 -23 -25 3 -1
29 25 27 15 24 -33 -9 -20 -14 -28 -28 -28 -49 0 -36 -17 -38 -26 -2 -15 57
56 123 133 123 37 0 50 -5 74 -31z m982 20 c61 -32 88 -78 71 -123 -10 -26
-24 -18 -24 12 0 30 -17 50 -60 72 l-25 13 21 -24 c37 -43 42 -56 11 -36 -35
23 -41 22 -23 -5 25 -35 19 -44 -10 -17 l-27 24 12 -23 c7 -13 10 -26 7 -29
-3 -3 -8 2 -12 11 -3 9 -10 16 -15 16 -6 0 -4 -10 2 -22 11 -21 11 -22 -4 -9
-15 12 -17 11 -17 -8 0 -21 -1 -21 -30 -6 -16 8 -37 15 -47 15 -13 0 -14 3 -5
12 7 7 12 23 12 35 0 31 25 79 47 92 24 14 89 14 116 0z m-450 -87 c15 -14 27
-36 27 -49 0 -25 -113 -163 -134 -163 -21 0 -125 125 -132 157 -5 25 0 34 25
55 26 23 39 26 108 26 70 0 81 -2 106 -26z m-351 -63 c79 -40 151 -108 183
-173 23 -47 49 -176 36 -176 -3 0 -19 27 -34 59 -15 32 -42 73 -58 92 l-30 34
31 -48 c34 -52 74 -136 68 -143 -3 -2 -19 16 -37 41 -41 57 -50 58 -17 3 14
-24 32 -61 41 -83 l17 -40 -73 70 -72 70 41 -55 c41 -57 82 -131 82 -150 0 -6
-27 21 -60 60 -65 75 -86 90 -50 38 29 -45 94 -178 88 -183 -2 -3 -20 17 -40
43 -20 26 -51 61 -69 77 l-33 30 22 -35 c43 -68 91 -156 107 -195 16 -39 15
-39 -50 30 -51 54 -65 64 -60 45 l6 -25 -18 25 c-10 14 -39 46 -65 72 -56 54
-58 69 -27 191 13 52 19 97 15 122 l-6 40 30 -35 c25 -28 33 -33 48 -24 24 15
27 84 6 126 -9 18 -34 54 -56 81 -21 26 -37 47 -33 47 3 0 33 -14 67 -31z
m527 -10 c-66 -66 -95 -150 -69 -200 15 -27 29 -24 62 14 l29 32 -6 -42 c-5
-28 0 -67 15 -120 33 -120 31 -138 -27 -192 -27 -25 -57 -57 -66 -71 l-18 -25
6 25 c6 23 4 23 -27 -10 -18 -19 -46 -50 -61 -69 -15 -18 -30 -31 -32 -29 -7
6 75 165 115 224 l33 49 -31 -29 c-18 -17 -51 -53 -74 -82 -23 -29 -44 -51
-46 -49 -6 6 42 106 82 171 l37 59 -33 -35 c-18 -19 -50 -55 -72 -80 -30 -36
-37 -40 -31 -20 12 40 35 81 77 140 l40 55 -71 -72 c-39 -40 -71 -69 -71 -65
0 4 17 42 39 85 21 42 38 77 37 77 -1 0 -17 -20 -36 -45 -18 -25 -35 -43 -38
-41 -5 6 56 126 85 166 l26 35 -27 -25 c-14 -14 -44 -59 -67 -100 l-40 -75 5
62 c7 82 39 146 101 210 47 46 152 111 183 113 6 0 -6 -18 -29 -41z m-1158
-21 c49 -27 74 -74 55 -103 -19 -28 -54 -30 -88 -5 -53 39 -68 -7 -19 -59 23
-25 37 -31 69 -31 37 0 40 -2 44 -30 3 -16 3 -30 0 -30 -18 0 -111 56 -129 78
-15 18 -23 22 -23 12 -1 -30 -30 23 -30 54 l-1 31 -14 -25 c-10 -17 -14 -20
-15 -9 0 30 35 61 85 74 49 13 49 14 15 16 -91 6 -126 -9 -142 -63 -8 -28 -8
-48 -1 -73 13 -42 2 -45 -26 -9 -43 55 -15 135 60 172 56 28 111 28 160 0z
m1905 3 c83 -38 110 -120 59 -178 l-25 -28 6 51 c11 94 -38 141 -132 125 l-39
-7 39 -8 c43 -8 86 -46 85 -73 0 -13 -3 -12 -11 7 -11 25 -11 24 -18 -13 -7
-36 -30 -75 -30 -50 0 6 -15 -4 -33 -21 -19 -18 -53 -39 -75 -48 l-42 -16 0
29 c0 27 2 29 41 29 33 0 47 6 70 31 46 49 32 104 -15 60 -25 -23 -65 -28 -84
-9 -18 18 -14 52 10 83 43 54 121 69 194 36z m-1540 -35 c26 -26 34 -42 34
-70 0 -28 -4 -36 -18 -36 -10 0 -27 -7 -38 -15 -27 -20 -33 -19 -27 8 5 22 4
21 -16 -3 l-22 -25 7 30 c4 23 3 26 -5 15 -9 -13 -11 -13 -11 0 0 9 7 26 16
38 20 29 8 29 -17 0 -17 -21 -18 -21 -12 -3 3 11 13 29 22 39 15 18 15 18 -7
7 -46 -24 -53 -85 -19 -154 31 -61 18 -83 -17 -30 -34 51 -42 98 -26 162 14
58 28 70 84 71 30 0 45 -7 72 -34z m1144 24 c23 -12 44 -99 37 -147 -8 -46
-56 -121 -67 -103 -4 7 2 30 16 54 30 51 31 105 3 140 -11 14 -25 26 -30 26
-6 0 -1 -12 10 -26 27 -34 27 -57 1 -25 -24 28 -25 25 -5 -25 15 -36 15 -38
-1 -19 -16 19 -16 19 -10 -10 l7 -30 -21 25 -21 25 6 -24 c4 -13 3 -21 -1 -19
-5 2 -26 12 -46 21 -41 18 -49 47 -27 88 24 46 105 73 149 49z m-1340 -45
c-33 -143 16 -226 199 -334 202 -119 255 -173 302 -307 20 -58 28 -161 16
-217 -7 -36 -89 -146 -95 -128 -3 8 3 18 12 23 35 20 60 89 61 168 0 95 -26
152 -123 266 -52 60 -95 97 -173 148 -57 38 -122 85 -143 105 l-39 36 23 -34
c13 -18 52 -56 88 -85 89 -70 180 -155 205 -191 12 -16 -11 0 -51 37 -39 37
-86 75 -104 84 -23 12 -7 -8 50 -61 46 -43 97 -99 115 -124 l31 -46 -69 61
c-118 103 -145 113 -49 19 104 -103 152 -174 56 -82 -33 31 -63 57 -66 57 -4
0 14 -25 39 -55 55 -68 58 -81 8 -33 -65 62 -158 124 -222 148 -34 12 -60 28
-59 34 2 6 -9 27 -24 46 -38 50 -50 87 -38 111 6 10 15 19 20 19 16 0 12 28
-10 70 -28 54 -35 116 -21 181 10 48 57 137 66 127 2 -2 0 -21 -5 -43z m1466
-64 c20 -66 14 -144 -15 -205 -25 -50 -26 -66 -7 -66 37 0 26 -67 -20 -127
-13 -17 -24 -38 -24 -47 0 -9 -22 -23 -55 -35 -75 -28 -128 -63 -229 -151 -46
-40 -40 -27 18 45 l41 50 -48 -39 c-26 -22 -52 -48 -58 -58 -5 -10 -14 -18
-20 -18 -19 0 13 41 104 133 101 101 100 102 -21 3 -107 -87 -91 -53 32 71 98
98 77 97 -30 0 -35 -32 -64 -56 -64 -52 0 13 98 110 155 153 74 56 143 120
157 147 7 13 -2 9 -23 -12 -19 -18 -86 -67 -149 -110 -94 -64 -128 -95 -188
-168 -89 -110 -116 -174 -109 -260 5 -63 37 -142 62 -152 16 -6 20 -23 6 -23
-17 0 -70 83 -87 137 -16 49 -16 60 -2 131 9 42 30 108 49 146 41 83 95 132
246 221 137 80 176 114 207 178 27 54 31 99 16 177 l-8 45 24 -30 c13 -16 32
-54 40 -84z m-2171 -177 c47 -23 64 -26 113 -21 31 3 90 19 130 37 95 40 153
47 225 26 60 -17 147 -87 147 -118 0 -11 -11 -5 -34 17 -65 61 -189 71 -352
30 -54 -14 -110 -25 -124 -25 -17 0 -21 -3 -12 -9 16 -10 46 -5 131 20 35 10
80 19 100 19 52 -1 140 -24 186 -49 22 -12 31 -19 20 -16 -60 15 -134 25 -184
24 l-56 -1 45 -10 c25 -5 68 -13 95 -19 46 -9 122 -45 114 -54 -2 -2 -31 3
-64 11 -33 7 -80 13 -105 13 -43 -1 -42 -1 24 -15 60 -13 146 -47 146 -58 0
-2 -26 3 -57 10 -32 8 -78 14 -103 13 l-45 0 70 -23 c115 -37 114 -41 -12 -37
-134 4 -150 -13 -22 -24 97 -9 95 -28 -3 -29 -79 0 -138 25 -138 60 0 12 5 26
10 29 6 3 10 14 10 24 0 15 -12 19 -66 25 -91 9 -165 40 -223 92 -51 46 -91
113 -91 154 0 20 5 17 35 -23 22 -29 54 -55 90 -73z m1020 92 c42 -42 42 -136
0 -152 -21 -8 -91 20 -87 34 1 7 -3 12 -9 12 -8 0 -8 5 1 15 10 12 10 15 -1
15 -9 1 -8 5 5 15 19 14 19 15 1 15 -17 0 -16 2 5 25 20 21 21 25 6 25 -31 0
-66 -46 -66 -85 0 -25 -4 -35 -12 -32 -24 8 -13 76 18 108 37 39 103 41 139 5z
m919 -5 c31 -32 42 -100 19 -108 -9 -3 -13 7 -13 32 0 40 -36 85 -67 85 -14
-1 -12 -6 12 -25 30 -25 30 -25 6 -25 -24 0 -24 0 -5 -15 13 -10 14 -14 5 -15
-11 0 -11 -3 -1 -15 9 -11 9 -15 1 -15 -7 0 -10 -4 -6 -10 7 -11 -46 -40 -73
-40 -40 0 -60 55 -40 115 23 70 111 89 162 36z m986 -55 c-47 -98 -157 -167
-289 -182 -34 -3 -64 -10 -67 -15 -2 -5 2 -22 11 -39 14 -28 14 -31 -5 -50
-11 -11 -32 -22 -47 -25 -16 -4 -34 -10 -42 -14 -13 -6 -69 2 -111 17 -8 3 22
10 67 16 121 16 114 28 -14 24 -61 -1 -109 0 -107 4 4 6 107 42 149 51 11 3
-2 5 -30 6 -27 0 -76 -5 -107 -13 -32 -7 -58 -11 -58 -9 0 9 95 45 153 58 l62
13 -45 1 c-39 0 -85 -7 -155 -25 -19 -5 -19 -4 2 14 20 18 65 32 193 61 39 9
34 10 -45 6 -49 -2 -103 -8 -119 -15 -16 -6 -31 -8 -34 -5 -10 9 91 47 155 58
55 10 74 9 131 -7 37 -11 90 -20 117 -22 28 -2 41 -1 30 2 -198 48 -244 56
-320 52 -87 -5 -151 -30 -179 -70 -13 -18 -16 -19 -16 -6 0 27 54 81 107 108
39 20 62 25 123 24 63 0 86 -6 145 -33 45 -21 91 -35 130 -38 52 -4 67 -1 115
24 31 16 68 47 85 69 24 32 31 36 33 22 2 -10 -6 -38 -18 -62z m-3293 -160
c31 -37 31 -85 -2 -116 -21 -20 -29 -22 -49 -12 -18 8 -23 16 -19 31 6 25 -24
41 -38 20 -25 -40 9 -109 54 -109 37 0 128 48 134 70 6 22 11 24 32 11 21 -13
-11 -58 -52 -76 l-32 -14 50 -1 c39 0 46 -3 37 -12 -8 -8 -43 -13 -91 -13 -44
0 -78 -1 -77 -2 1 -1 27 -9 57 -17 l54 -15 -40 -1 c-97 -5 -138 15 -190 93
l-35 52 0 -40 c0 -22 9 -54 19 -71 19 -32 109 -84 144 -84 10 0 15 -4 12 -10
-3 -5 -26 -10 -49 -10 -36 0 -53 7 -93 40 -28 22 -57 54 -64 72 -32 77 5 197
71 231 53 27 136 19 167 -17z m3730 14 c35 -21 55 -53 72 -117 18 -65 0 -117
-57 -170 -54 -50 -94 -64 -136 -50 l-30 10 40 12 c101 30 144 73 144 142 l0
45 -33 -48 c-51 -74 -87 -94 -166 -93 l-66 0 54 15 c73 19 74 23 4 17 -40 -4
-69 -1 -93 10 l-35 15 50 2 50 1 -31 13 c-41 18 -67 55 -52 73 15 18 26 16 33
-6 6 -21 93 -71 125 -71 52 0 93 58 70 100 -14 26 -45 22 -45 -5 -1 -48 -34
-59 -72 -23 -41 38 -23 116 31 138 38 16 109 11 143 -10z m-3294 -217 c56 -49
100 -51 264 -12 186 44 315 46 417 6 124 -49 274 -177 316 -269 27 -59 26
-133 -2 -188 -13 -24 -29 -46 -37 -48 -8 -3 -4 9 10 28 33 44 31 126 -4 203
-80 174 -360 292 -592 248 -31 -6 -14 -8 80 -13 132 -7 198 -25 281 -77 50
-31 54 -42 6 -17 -90 46 -231 72 -317 58 l-50 -8 85 -7 c93 -7 211 -37 269
-67 20 -10 34 -19 31 -19 -3 0 -41 6 -85 14 -91 16 -149 19 -141 6 3 -4 38
-11 78 -14 89 -7 168 -30 200 -58 15 -14 18 -19 6 -15 -9 2 -45 7 -80 11 l-63
6 73 -20 c66 -18 140 -57 129 -67 -2 -3 -17 0 -33 6 l-29 11 29 -30 c33 -35
27 -40 -12 -12 -49 34 -106 53 -183 58 -64 5 -77 9 -85 27 -9 20 -15 21 -120
18 -132 -4 -148 4 -138 69 l7 39 -60 0 c-147 0 -292 90 -308 191 l-6 34 14
-30 c8 -17 30 -45 50 -62z m2737 27 c-17 -41 -91 -107 -148 -131 -26 -11 -83
-24 -127 -27 l-80 -7 3 -42 c3 -58 -13 -65 -146 -61 -101 3 -108 2 -116 -18
-8 -18 -21 -22 -87 -27 -77 -5 -158 -35 -201 -74 -10 -9 -18 -11 -18 -5 0 6
15 22 33 37 29 24 30 26 7 19 -14 -4 -31 -9 -39 -12 -9 -3 -12 -1 -7 6 12 20
67 45 136 63 69 18 51 23 -39 10 -54 -8 -54 -8 -32 10 33 27 114 49 204 56 42
3 77 10 77 14 0 13 -54 10 -145 -6 -44 -8 -82 -14 -85 -14 -3 0 16 11 41 24
57 30 159 54 271 64 l83 7 -75 8 c-78 8 -170 -6 -245 -39 -19 -8 -52 -22 -72
-30 l-38 -16 25 20 c82 66 195 100 340 102 106 2 64 16 -53 18 -122 2 -250
-39 -364 -117 -71 -48 -108 -99 -134 -184 -23 -72 -19 -123 14 -164 14 -18 16
-25 6 -22 -25 8 -58 89 -58 143 -1 68 25 119 98 198 114 121 238 184 386 194
68 4 106 -1 249 -32 116 -25 181 -34 205 -30 48 9 97 43 118 83 21 38 31 24
13 -18z m-2815 -88 c-6 -4 -37 -16 -70 -27 -51 -16 -72 -31 -146 -104 -47 -48
-95 -104 -107 -126 l-22 -40 27 35 c58 73 154 167 195 190 40 22 39 19 -25
-40 -37 -34 -73 -72 -79 -84 -6 -12 10 -1 38 25 50 46 191 136 200 127 2 -3
-8 -13 -23 -23 -50 -33 -112 -88 -145 -130 l-32 -40 54 48 c49 44 176 127 194
127 4 0 -7 -12 -26 -27 -51 -41 -128 -116 -128 -125 0 -4 21 8 47 28 51 39
142 88 150 80 3 -2 -5 -9 -16 -16 -25 -13 -124 -99 -130 -112 -1 -5 23 7 54
27 63 41 153 85 173 85 21 0 -150 -112 -177 -116 -51 -7 -57 -10 -103 -37 -46
-27 -98 -83 -98 -105 0 -22 -20 -12 -26 13 -15 61 -57 53 -99 -18 -30 -52 -40
-117 -27 -175 13 -58 -4 -51 -38 13 -21 41 -25 64 -25 130 0 68 4 89 29 138
56 116 195 234 319 273 49 15 75 18 62 6z m2982 -43 c95 -47 193 -142 240
-232 24 -45 28 -63 28 -142 0 -81 -3 -95 -28 -137 -33 -57 -49 -62 -35 -11 21
77 -19 205 -73 233 -24 14 -33 8 -49 -30 -13 -32 -30 -40 -30 -15 0 20 -57 83
-92 101 -16 8 -46 32 -67 53 -22 22 -62 57 -91 80 -28 23 -49 41 -46 41 17 0
115 -56 153 -86 23 -19 45 -34 49 -34 12 0 -63 76 -121 123 -27 22 -41 37 -30
33 40 -14 128 -72 183 -121 49 -44 53 -46 33 -16 -13 18 -57 60 -97 93 -41 34
-74 63 -74 65 0 14 134 -73 188 -122 47 -42 59 -51 44 -28 -12 17 -50 57 -85
89 -62 57 -62 57 -18 33 51 -28 116 -90 173 -166 22 -29 42 -53 45 -53 16 0
-46 79 -122 156 -76 77 -99 94 -145 109 -62 20 -94 42 -45 31 17 -3 67 -25
112 -47z m-3604 22 c13 -5 1 -10 -42 -19 -102 -21 -183 -101 -229 -225 -34
-92 -33 -104 2 -30 45 94 79 138 130 167 76 44 92 42 41 -5 -26 -24 -61 -64
-78 -89 l-31 -45 55 51 c46 43 124 94 143 94 3 0 -14 -20 -38 -44 -24 -24 -49
-54 -56 -67 -12 -21 -9 -20 26 8 80 62 88 54 17 -18 -68 -70 -153 -190 -167
-235 -3 -11 -20 -34 -37 -50 -25 -24 -31 -26 -39 -14 -8 13 -14 12 -42 -4 -87
-51 -108 -58 -151 -52 -23 4 -55 13 -72 21 -30 13 -30 13 23 14 127 2 191 76
227 266 28 148 76 217 181 260 59 25 103 30 137 16z m4234 -20 c102 -51 139
-110 172 -271 37 -173 94 -240 215 -250 l61 -6 -58 -18 c-71 -22 -110 -16
-166 24 -42 31 -67 38 -73 20 -7 -21 -47 22 -86 92 -52 94 -78 128 -160 212
-54 56 -61 65 -35 52 18 -9 49 -31 70 -49 l37 -32 -34 49 c-19 26 -48 59 -63
72 -16 13 -26 24 -22 24 20 0 96 -50 144 -94 l55 -51 -32 45 c-40 58 -60 80
-96 108 -41 31 -10 27 50 -7 60 -35 93 -76 140 -174 36 -74 36 -62 2 30 -45
123 -127 204 -228 225 -39 8 -55 15 -47 20 19 14 111 2 154 -21z m-3867 -21
c-14 -11 -60 -40 -104 -66 -156 -91 -326 -286 -416 -476 -58 -125 -58 -144 0
-43 55 94 132 196 196 255 41 39 37 27 -15 -40 -35 -47 -137 -248 -129 -256 3
-2 22 25 43 60 33 57 165 218 173 211 2 -1 -11 -26 -28 -55 -27 -46 -60 -115
-60 -127 0 -2 25 24 54 58 78 89 94 94 56 19 -38 -74 -33 -91 8 -26 l29 45 16
-39 c18 -48 10 -91 -21 -105 -11 -5 -24 -21 -27 -35 -13 -57 -28 -78 -65 -95
-35 -16 -40 -16 -62 -1 -30 19 -30 19 -77 -74 -49 -97 -99 -156 -166 -200
-103 -66 -222 -94 -305 -71 -22 6 -20 8 25 25 62 24 139 100 170 169 13 28 44
122 69 208 25 87 63 193 85 237 78 156 216 294 356 357 33 15 74 34 90 41 39
18 107 42 120 43 6 0 -1 -8 -15 -19z m1594 -82 c17 -53 19 -96 7 -138 -6 -19
-2 -30 17 -48 20 -19 23 -29 18 -60 -4 -20 -8 -52 -10 -71 -3 -19 -16 -46 -33
-65 -73 -78 -143 -193 -143 -236 0 -11 -5 -20 -11 -20 -12 0 -6 39 16 103 15
45 11 48 -10 6 -9 -17 -19 -28 -22 -25 -3 3 13 42 35 86 22 44 39 80 38 80 -8
0 -87 -130 -110 -180 l-25 -55 5 45 c8 60 52 151 120 247 l56 78 -56 -55 c-78
-75 -106 -119 -139 -214 l-28 -81 4 62 c7 92 43 160 136 257 59 61 82 94 91
125 14 53 8 64 -11 19 -7 -18 -52 -73 -99 -123 -109 -115 -159 -207 -169 -309
l-7 -71 -13 45 c-17 57 -9 135 18 189 12 22 66 85 121 138 144 139 183 226
150 343 l-9 35 23 -29 c13 -16 31 -51 40 -78z m213 44 c-22 -105 20 -188 166
-328 51 -49 101 -106 111 -127 24 -52 31 -132 15 -187 l-13 -45 -7 74 c-10
106 -53 184 -161 297 -48 49 -96 110 -107 135 -23 49 -27 37 -9 -24 8 -28 38
-68 91 -125 92 -97 127 -165 133 -255 l5 -62 -24 72 c-32 95 -64 147 -131 213
-66 64 -72 62 -16 -6 51 -62 117 -196 125 -254 6 -43 4 -41 -39 45 -25 50 -57
104 -71 120 -23 26 -22 22 8 -35 19 -36 38 -76 42 -90 6 -23 5 -23 -14 5 -25
36 -25 34 -6 -29 18 -58 19 -76 5 -76 -5 0 -10 10 -10 23 -1 33 -59 135 -120
209 -33 40 -54 76 -55 94 -2 16 -6 46 -10 66 -6 32 -4 40 17 59 23 20 24 27
16 63 -14 63 10 158 55 214 15 19 16 12 4 -46z m1574 43 c24 -8 58 -22 74 -29
17 -8 50 -22 75 -33 167 -69 340 -255 407 -441 14 -37 40 -123 59 -192 19 -69
46 -150 61 -180 35 -72 106 -142 167 -165 40 -15 45 -20 30 -26 -36 -14 -125
-9 -184 11 -127 43 -218 123 -285 253 -52 100 -52 100 -84 81 -23 -14 -30 -14
-63 0 -33 14 -39 23 -53 70 -11 38 -22 56 -40 64 -29 14 -36 54 -15 103 l14
36 29 -45 c39 -62 44 -47 8 27 -16 33 -26 61 -21 61 5 0 36 -32 69 -71 34 -38
61 -64 61 -57 0 7 -20 49 -45 92 -25 44 -43 81 -41 83 8 8 120 -132 171 -213
30 -48 55 -83 55 -78 0 22 -105 223 -147 283 l-46 66 42 -40 c69 -65 141 -161
198 -264 58 -104 64 -110 32 -29 -93 239 -279 465 -472 573 -56 32 -116 74
-106 75 4 0 26 -7 50 -15z m-2822 -231 c66 -36 133 -94 170 -148 57 -83 41
-84 -41 -2 -96 96 -166 135 -254 142 l-59 5 63 -25 c34 -14 87 -42 117 -61 53
-35 160 -143 152 -152 -3 -2 -29 11 -58 30 -30 19 -65 39 -79 46 l-25 12 25
-18 c42 -30 121 -106 132 -127 11 -20 11 -20 -17 -2 -50 33 -90 54 -115 61
-16 4 -9 -3 21 -23 43 -28 109 -97 109 -115 0 -5 -12 0 -27 11 -16 10 -46 29
-68 42 l-40 24 43 -49 c36 -41 72 -102 72 -122 0 -8 -54 7 -76 22 -16 10 -22
24 -22 50 0 53 -47 123 -110 164 -48 32 -50 36 -36 52 9 10 13 25 10 36 -17
49 -155 112 -218 99 -64 -13 11 42 97 71 66 21 172 11 234 -23z m2477 19 c51
-17 114 -53 114 -65 0 -4 -13 -5 -29 -2 -45 9 -137 -22 -181 -63 -44 -39 -47
-48 -25 -73 15 -16 12 -20 -29 -44 -25 -15 -57 -41 -70 -59 -33 -43 -59 -114
-45 -123 16 -9 -18 -42 -58 -55 -19 -6 -37 -9 -39 -6 -10 9 33 81 71 120 20
21 36 40 34 41 -2 2 -32 -14 -66 -35 -35 -21 -63 -35 -63 -31 0 17 67 87 109
113 25 16 42 29 38 29 -13 0 -111 -52 -130 -68 -9 -8 -20 -13 -23 -9 -8 7 63
84 111 120 52 39 21 28 -51 -18 -31 -20 -59 -34 -61 -31 -3 3 25 36 63 74 65
65 136 110 234 149 l35 13 -56 -4 c-87 -7 -161 -48 -256 -142 -46 -45 -83 -80
-83 -77 0 12 37 73 66 110 103 127 258 181 390 136z m-2185 -30 c39 -34 59
-79 59 -137 0 -25 5 -57 12 -72 10 -22 17 -25 44 -21 17 3 37 0 43 -6 6 -6 11
-44 11 -86 0 -69 -1 -73 -15 -55 -11 14 -10 4 5 -36 11 -30 20 -57 20 -60 0
-16 -63 93 -77 135 -9 28 -18 43 -20 35 -3 -14 15 -92 32 -135 4 -11 -6 -2
-22 20 -38 52 -61 111 -70 182 l-7 58 -7 -48 c-10 -66 5 -150 36 -203 31 -52
21 -57 -22 -11 -56 57 -64 105 -39 255 14 88 10 125 -18 180 -20 39 -8 41 35
5z m259 -2 c67 -34 115 -93 128 -158 14 -63 5 -73 -24 -26 l-23 38 -1 -40 -1
-40 -19 40 -18 40 -4 -40 c-3 -38 -4 -37 -12 20 -5 33 -14 74 -22 90 -12 29
-13 28 -6 -15 4 -25 6 -72 5 -105 -1 -33 -3 -104 -4 -157 -2 -54 -7 -98 -11
-98 -5 0 -16 17 -25 37 -12 30 -14 53 -7 103 4 36 8 103 8 150 1 74 -2 92 -27
138 -24 46 -25 52 -10 52 10 0 43 -13 73 -29z m1220 23 c0 -3 -9 -18 -19 -33
-31 -43 -44 -113 -37 -188 4 -38 9 -92 12 -121 4 -39 1 -67 -12 -100 l-18 -47
-7 40 c-4 22 -5 50 -2 63 3 12 0 59 -7 103 -10 62 -10 93 -1 140 7 34 10 63 7
66 -6 6 -21 -51 -32 -122 l-8 -50 -4 40 -3 39 -19 -39 -18 -40 -2 40 -1 40
-20 -39 c-13 -23 -24 -35 -30 -29 -14 14 14 107 43 145 37 49 178 121 178 92z
m220 2 c0 -3 -10 -21 -21 -41 -23 -38 -23 -34 -3 -252 4 -39 4 -83 0 -97 -7
-27 -72 -106 -87 -106 -4 0 5 24 20 54 32 60 46 151 32 206 l-9 35 -1 -30 c-2
-56 -32 -149 -63 -198 -17 -26 -32 -46 -34 -45 -1 2 6 30 17 62 11 32 19 68
17 80 -3 15 -8 7 -21 -28 -18 -52 -66 -140 -73 -134 -2 2 5 29 16 59 15 39 16
49 5 35 -14 -18 -15 -14 -15 56 0 86 10 102 58 92 28 -6 33 -3 42 20 5 15 10
47 10 72 0 58 20 103 59 137 30 25 51 34 51 23z m-2506 -215 c-45 -28 -64 -59
-64 -109 0 -47 18 -97 51 -143 29 -41 35 -30 10 19 -28 54 -36 113 -21 143 17
33 29 39 72 39 l36 0 -29 -29 c-20 -21 -29 -39 -29 -63 l0 -33 18 35 c9 19 29
41 43 49 24 13 31 13 68 -4 53 -24 62 -36 19 -29 l-33 7 34 -24 c48 -33 69
-67 75 -119 l6 -45 -14 37 c-22 55 -56 97 -103 125 -64 37 -88 13 -33 -33 16
-14 35 -43 41 -64 10 -33 9 -43 -5 -65 -23 -34 -58 -47 -93 -34 -32 12 -83 57
-83 73 0 6 -11 34 -25 61 -44 89 -27 182 38 210 46 20 57 18 21 -4z m3286 4
c63 -33 79 -126 35 -213 -14 -28 -25 -54 -25 -59 0 -15 -53 -61 -83 -72 -33
-13 -80 6 -98 41 -16 30 4 90 41 122 47 39 34 69 -17 42 -57 -30 -102 -86
-124 -156 -5 -16 -6 -7 -3 25 7 57 26 90 75 124 l34 24 -30 -7 -30 -6 24 20
c52 45 109 31 136 -33 l14 -32 0 35 c0 38 -12 60 -44 78 -18 10 -15 11 21 12
62 0 79 -18 78 -82 -1 -45 -9 -74 -42 -142 -3 -5 1 -6 7 -2 6 4 25 31 41 59
22 39 30 65 30 102 0 57 -16 87 -64 116 -37 22 -18 26 24 4z m-1577 -93 c68
-84 106 -159 114 -224 5 -42 9 -49 24 -45 15 4 19 -1 19 -22 0 -39 -19 -88
-36 -95 -11 -4 -14 5 -15 37 l-1 42 -9 -38 c-10 -43 -26 -77 -37 -77 -4 0 -7
42 -8 93 -1 119 -18 168 -20 58 -2 -90 -19 -180 -39 -207 -13 -17 -15 -10 -16
66 l-2 85 -8 -73 c-5 -39 -16 -98 -25 -130 l-18 -57 -17 58 c-10 31 -22 90
-27 130 l-9 72 -2 -85 c-1 -78 -2 -83 -16 -63 -21 30 -35 112 -37 208 -1 114
-20 61 -22 -62 -1 -118 -16 -124 -42 -18 l-12 50 -1 -47 c-1 -37 -4 -46 -15
-42 -17 7 -36 56 -36 95 0 22 4 26 19 22 16 -4 20 3 26 49 9 68 50 144 126
236 69 84 60 85 142 -16z m-1387 -40 c45 -53 61 -89 68 -154 7 -53 10 -58 44
-75 37 -18 37 -18 37 -82 1 -57 3 -64 25 -76 22 -12 25 -20 26 -77 1 -83 35
-169 85 -219 22 -22 39 -41 39 -43 0 -8 -86 16 -107 29 -24 16 -42 63 -53 139
l-8 51 -1 -54 c-2 -95 -23 -43 -31 76 -4 59 -8 88 -9 63 -3 -60 -19 -26 -21
45 -2 54 -18 111 -19 68 -1 -33 -21 -28 -22 5 0 24 -2 23 -14 -13 -14 -39 -14
-39 -8 31 3 44 1 79 -6 90 -9 17 -10 17 -11 -7 0 -14 -11 -68 -25 -120 -29
-109 -33 -230 -11 -304 8 -26 31 -73 52 -104 24 -36 29 -49 15 -37 -69 62
-122 198 -124 318 -1 56 6 97 31 177 36 117 42 217 18 276 -19 45 -9 44 30 -3z
m2648 3 c-24 -58 -18 -163 16 -268 41 -127 45 -168 27 -264 -18 -93 -50 -161
-102 -218 -36 -38 -36 -39 -13 -5 59 84 71 120 76 230 3 90 0 119 -22 200 -14
52 -26 109 -27 125 l-1 30 -7 -30 c-4 -16 -6 -59 -4 -95 l2 -65 -14 40 -13 40
-1 -33 c-1 -36 -20 -35 -22 1 -2 43 -17 -24 -18 -80 -1 -54 -20 -75 -22 -25
-1 15 -5 -19 -9 -76 -8 -112 -29 -164 -31 -76 l-1 49 -9 -57 c-4 -32 -15 -71
-24 -89 -17 -33 -67 -59 -111 -59 l-27 0 27 21 c59 47 113 186 101 259 -6 35
-4 39 21 52 27 12 28 17 29 78 0 64 1 65 33 82 44 22 44 21 49 70 6 65 29 119
69 161 19 20 37 37 39 37 2 0 -3 -16 -11 -35z m-1834 -30 c-29 -129 34 -220
223 -323 63 -35 117 -69 120 -76 5 -12 -213 96 -250 124 -10 8 -5 0 11 -18 17
-18 73 -54 125 -81 90 -46 116 -66 151 -116 13 -19 13 -19 -10 1 -14 12 -47
34 -75 49 l-50 28 48 -43 c26 -23 65 -68 86 -99 22 -31 46 -63 55 -70 9 -7 16
-18 16 -22 0 -15 -54 17 -105 61 -75 65 -66 45 14 -32 41 -39 67 -68 58 -65
-53 22 -53 21 -40 5 11 -13 7 -14 -32 -8 -60 9 -77 25 -69 65 5 31 3 34 -30
45 -58 19 -108 95 -76 115 22 13 8 41 -35 70 -53 35 -104 100 -139 175 -31 65
-36 178 -11 237 20 48 28 37 15 -22z m1006 24 c10 -21 16 -58 16 -108 0 -63
-4 -87 -26 -133 -37 -78 -87 -141 -141 -174 -47 -30 -53 -42 -34 -72 22 -35
-2 -74 -60 -102 -48 -23 -52 -27 -46 -54 7 -41 -18 -66 -67 -66 -27 0 -37 4
-32 12 5 8 2 9 -9 5 -10 -4 -25 -10 -34 -14 -9 -3 17 26 58 65 80 77 89 97 14
32 -51 -44 -105 -76 -105 -61 0 4 7 15 16 22 9 7 33 39 55 70 21 31 57 73 80
93 56 47 41 46 -33 -3 -57 -39 -58 -39 -38 -11 26 37 54 56 155 108 69 36 145
92 145 108 0 3 -16 -7 -35 -21 -45 -35 -244 -133 -238 -118 2 6 56 40 119 75
141 77 199 131 220 206 15 50 14 116 -3 158 -10 27 7 14 23 -17z m595 -182
c-29 -83 -59 -136 -108 -188 -53 -57 -71 -63 -46 -16 13 23 18 55 18 119 0 84
1 87 23 85 12 -1 22 -6 22 -12 0 -5 5 -3 10 5 7 12 11 10 19 -10 l9 -25 7 30
c5 25 28 48 62 64 1 1 -6 -23 -16 -52z m-2190 30 c9 -7 19 -25 23 -42 7 -26 9
-27 15 -11 5 13 19 20 43 22 l36 3 -5 -62 c-4 -45 0 -77 14 -119 11 -32 16
-58 12 -58 -21 0 -112 121 -139 186 -39 94 -39 112 1 81z m-739 -54 c32 -29
40 -51 27 -74 l-11 -21 -24 23 c-21 20 -24 20 -24 5 0 -16 -3 -15 -20 5 -18
21 -19 22 -14 4 6 -20 5 -20 -10 -1 -9 11 -16 26 -16 33 0 7 -5 13 -11 13 -8
0 -10 -15 -7 -44 5 -38 3 -44 -11 -39 -29 11 -51 36 -51 60 0 14 7 26 18 29 9
3 28 12 42 20 31 18 85 11 112 -13z m3756 13 c15 -8 35 -17 45 -20 36 -11 14
-78 -29 -88 -20 -5 -21 -2 -16 38 3 29 1 44 -7 44 -6 0 -11 -6 -11 -13 0 -7
-7 -22 -15 -33 -15 -19 -15 -19 -9 1 5 18 3 17 -15 -4 -19 -21 -21 -21 -21 -5
-1 17 -3 17 -20 -4 -16 -20 -20 -21 -34 -7 -33 33 25 102 87 104 11 1 31 -5
45 -13z m-3540 -59 c22 -22 22 -23 5 -64 -14 -31 -23 -40 -40 -39 -16 1 -23 7
-23 21 l-1 20 -15 -20 c-15 -19 -16 -18 -12 18 5 45 1 47 -17 5 -12 -28 -12
-36 0 -55 13 -18 12 -22 -2 -27 -32 -13 -58 62 -39 109 28 67 94 81 144 32z
m3325 13 c39 -31 52 -80 33 -125 -12 -27 -20 -36 -32 -31 -8 3 -18 6 -20 6 -2
0 3 11 11 24 12 17 13 30 6 49 -15 40 -27 39 -24 -1 1 -20 0 -29 -3 -19 -3 9
-10 17 -15 17 -5 0 -9 -8 -9 -17 0 -12 -8 -18 -23 -19 -17 -1 -26 7 -38 35
-19 45 -15 57 25 82 39 24 57 24 89 -1z m-3153 -61 c7 -12 8 -33 4 -52 -4 -18
-7 -37 -6 -44 2 -6 -2 -14 -8 -18 -5 -3 -10 1 -10 9 0 22 -20 20 -20 -1 -1
-12 -6 -7 -15 12 -13 29 -13 30 -14 5 -2 -23 -3 -23 -12 -7 -6 11 -9 29 -6 43
6 34 -10 19 -18 -16 -11 -48 2 -68 53 -85 l47 -15 -43 4 c-71 7 -111 55 -92
110 11 33 53 79 80 88 20 7 47 -8 60 -33z m3000 -33 c25 -53 21 -75 -21 -111
-21 -17 -42 -25 -67 -24 l-37 0 44 14 c24 8 48 20 52 27 13 20 11 62 -5 83
-13 18 -14 18 -9 -7 3 -14 0 -34 -6 -45 -9 -16 -10 -16 -12 7 -1 25 -1 24 -14
-5 -11 -24 -14 -26 -15 -10 -1 19 -1 19 -14 2 -14 -18 -33 -7 -21 12 3 5 0 21
-6 35 -15 33 1 73 33 85 35 13 73 -12 98 -63z m-3430 -38 c95 -41 149 -125
159 -248 l6 -75 61 3 c40 2 74 -2 99 -12 l37 -16 -8 -77 c-5 -43 -9 -110 -9
-150 0 -65 3 -75 33 -117 47 -65 15 -61 -37 4 -63 79 -77 149 -36 176 14 9 25
22 25 30 0 7 -11 16 -25 20 -14 3 -25 14 -25 23 -1 14 -3 13 -15 -3 -15 -20
-15 -20 -15 0 -1 19 -1 19 -15 0 -14 -19 -15 -18 -15 13 0 39 -16 33 -26 -12
l-7 -32 -15 35 -16 35 -6 -35 c-4 -28 -7 -31 -13 -17 -4 10 -7 31 -7 45 0 55
-17 56 -29 3 -6 -29 -11 -60 -12 -69 -1 -11 -4 -8 -9 8 -4 14 -9 75 -10 135
l-2 110 -19 -120 c-11 -66 -22 -137 -26 -158 -4 -26 -9 -35 -16 -28 -7 7 -6
51 3 139 8 79 10 151 5 187 l-8 60 -14 -85 c-7 -47 -22 -112 -33 -145 -24 -77
-41 -228 -31 -282 15 -77 99 -195 176 -249 47 -32 57 -35 147 -39 87 -4 158 2
213 20 14 5 12 0 -10 -19 -41 -36 -117 -50 -203 -38 -115 16 -226 85 -301 186
-80 107 -89 192 -47 416 47 255 45 303 -22 374 l-37 38 55 -7 c30 -4 75 -16
100 -27z m3848 -5 c-25 -26 -40 -53 -48 -87 -12 -55 -10 -76 31 -305 34 -184
31 -248 -12 -339 -36 -74 -135 -166 -224 -209 -70 -33 -85 -36 -164 -37 -89 0
-144 17 -173 52 -11 14 -10 15 7 8 72 -27 279 -30 328 -5 84 45 187 176 207
264 13 59 -1 192 -32 296 -10 36 -25 101 -32 145 l-12 79 -8 -67 c-5 -40 -4
-105 3 -162 13 -111 14 -166 3 -166 -7 0 -27 101 -51 260 -8 48 -9 40 -10 -65
-1 -66 -6 -127 -11 -135 -8 -13 -10 -13 -10 2 0 9 -5 41 -11 70 -9 42 -13 49
-20 33 -4 -11 -8 -34 -8 -52 -1 -43 -21 -53 -22 -11 l-1 33 -15 -35 -16 -35
-9 32 c-12 45 -28 51 -29 11 -1 -18 -3 -25 -6 -15 -2 9 -9 17 -14 17 -5 0 -9
-8 -10 -17 0 -15 -2 -15 -9 2 -7 18 -9 18 -15 3 -3 -9 -17 -19 -31 -22 -31 -8
-31 -29 1 -50 17 -11 25 -26 25 -44 0 -56 -80 -182 -115 -182 -11 0 -7 12 14
41 39 53 47 111 32 226 -7 51 -10 102 -6 112 8 27 64 43 133 39 l57 -3 6 71
c16 175 118 275 289 283 23 1 23 0 -12 -36z m-4008 -27 c0 -2 -31 -13 -69 -25
-158 -48 -295 -205 -370 -423 -16 -46 -32 -99 -35 -118 l-6 -35 17 35 c83 172
110 222 149 281 49 75 99 122 165 158 l44 23 -35 -28 c-64 -51 -118 -116 -148
-178 -43 -89 -49 -120 -11 -61 38 60 193 216 237 239 28 14 26 11 -16 -31 -26
-27 -62 -68 -81 -93 l-35 -45 45 41 c45 41 112 94 139 109 8 5 -11 -19 -42
-53 -32 -33 -58 -63 -58 -66 0 -3 33 12 73 34 80 44 87 46 87 26 0 -7 -12 -16
-27 -19 -75 -15 -167 -113 -179 -189 -8 -44 -16 -48 -32 -13 -6 14 -16 25 -22
25 -24 0 -59 -90 -69 -180 l-7 -55 -14 30 c-9 17 -22 30 -30 30 -20 0 -74
-112 -90 -185 -7 -32 -11 -86 -8 -119 5 -72 -9 -68 -41 12 -68 172 -66 301 9
496 74 191 187 311 340 362 50 16 120 25 120 15z m4237 -42 c171 -85 314 -333
330 -574 6 -92 -16 -200 -57 -280 -30 -58 -36 -55 -32 19 5 80 -16 171 -56
245 -31 58 -50 64 -72 21 l-14 -30 -8 70 c-8 71 -43 156 -65 163 -7 2 -18 -8
-24 -22 -15 -31 -29 -34 -29 -6 0 66 -74 159 -157 196 -29 13 -53 28 -53 34 0
5 3 10 6 10 9 0 127 -60 144 -73 13 -11 13 -10 1 8 -8 11 -35 42 -60 69 -45
47 -45 48 -12 30 18 -11 63 -46 99 -79 l66 -60 -47 62 c-26 34 -64 75 -84 92
-55 45 -29 38 32 -9 65 -50 163 -152 200 -207 32 -49 39 -54 25 -18 -41 108
-103 193 -185 254 l-30 22 35 -17 c95 -45 191 -161 265 -319 23 -49 49 -106
58 -125 l17 -35 -6 35 c-8 46 -59 193 -85 248 -34 69 -127 181 -191 228 -33
24 -85 51 -116 61 -79 23 -90 37 -23 30 31 -4 84 -21 128 -43z m-3793 -20 c18
-27 18 -31 -6 -131 -8 -38 -17 -53 -29 -53 -14 0 -16 8 -11 46 4 36 2 45 -8
39 -9 -5 -10 -2 -5 15 5 17 4 21 -6 15 -9 -6 -11 -2 -7 13 4 14 2 20 -5 15
-10 -6 -7 12 8 51 7 16 6 17 -13 7 -12 -7 -22 -17 -22 -23 0 -7 -5 -6 -15 2
-12 10 -13 16 -3 27 33 40 88 29 122 -23z m3270 34 c18 -16 23 -27 17 -37 -7
-11 -13 -9 -31 9 -26 26 -36 21 -20 -10 13 -24 4 -64 -12 -54 -7 5 -9 -2 -4
-20 5 -20 4 -26 -5 -20 -9 5 -11 -5 -6 -39 6 -42 5 -47 -13 -47 -15 0 -20 7
-20 25 0 14 -7 42 -15 62 -26 63 -16 96 42 135 35 23 37 23 67 -4z m-2928
-166 c22 -59 58 -99 116 -128 49 -25 99 -33 309 -52 65 -6 111 -16 143 -32 54
-26 55 -38 1 -20 -25 8 -77 10 -175 5 -137 -7 -139 -7 -186 19 -53 30 -61 32
-45 12 6 -8 35 -24 64 -36 46 -20 60 -22 132 -15 123 13 156 10 209 -17 l49
-25 -84 3 -84 4 55 -13 c64 -15 116 -38 145 -61 l20 -17 -20 5 c-95 24 -99 18
-17 -23 l57 -29 -30 -7 c-16 -4 -46 -11 -65 -16 -61 -15 -82 -12 -80 14 4 46
4 46 -85 40 -80 -6 -87 -5 -110 17 -19 18 -25 32 -23 59 l3 36 -50 6 c-139 19
-272 135 -305 270 -10 38 -9 55 6 105 l18 59 8 -60 c4 -33 15 -79 24 -103z
m299 129 c37 -17 71 -42 84 -60 22 -31 63 -42 76 -21 12 19 53 10 75 -17 27
-35 21 -48 -24 -47 l-37 1 22 -23 22 -24 -24 0 c-14 0 -36 7 -49 16 -24 15
-24 15 1 -8 14 -12 35 -28 45 -35 18 -11 18 -12 -4 -12 -52 -2 -123 52 -157
117 -9 19 -19 31 -22 28 -3 -3 6 -29 21 -58 33 -68 90 -109 158 -116 26 -2 51
-9 54 -14 4 -7 -13 -8 -47 -4 -133 16 -169 39 -190 120 -6 22 -15 57 -20 77
-5 20 -20 53 -34 73 -13 20 -22 36 -19 36 3 0 34 -13 69 -29z m1936 2 c-12
-14 -28 -51 -37 -82 -42 -153 -61 -175 -170 -191 -87 -12 -97 -12 -89 0 3 6
22 10 42 10 47 0 120 37 148 75 20 27 49 95 40 95 -2 0 -20 -23 -40 -51 -36
-50 -96 -88 -140 -89 -16 0 -14 3 10 18 17 11 37 27 45 37 14 17 14 17 -17 2
-18 -10 -40 -17 -49 -17 -15 0 -14 3 5 24 l22 23 -37 -1 c-45 -1 -51 12 -24
47 24 31 55 34 88 11 22 -15 24 -14 56 19 37 39 100 76 164 96 2 1 -6 -11 -17
-26z m303 -93 c0 -68 -28 -124 -97 -197 -58 -61 -129 -99 -207 -110 l-55 -8 0
-42 c0 -64 -20 -75 -127 -69 l-88 5 0 -35 c0 -39 -6 -41 -92 -23 -87 18 -87
19 -18 55 61 33 63 34 27 29 -21 -3 -46 -9 -55 -11 -13 -4 -13 -2 3 11 32 27
106 56 158 62 29 4 44 10 39 15 -6 6 -38 5 -83 -1 -40 -5 -75 -9 -76 -7 -2 2
20 14 49 26 56 24 88 26 209 15 86 -8 127 1 174 40 l30 25 -58 -26 c-56 -25
-62 -26 -195 -19 -115 6 -144 5 -177 -9 l-40 -16 27 24 c33 30 93 43 258 56
136 11 165 17 227 48 78 40 132 139 134 248 l1 39 16 -35 c9 -19 16 -59 16
-90z m-2700 -50 c12 -36 26 -73 30 -82 6 -14 3 -18 -13 -18 -29 0 -61 35 -62
68 0 15 -3 21 -6 15 -9 -24 -23 -13 -17 13 5 19 4 25 -5 20 -6 -4 -11 -19 -12
-34 l-1 -27 -8 28 c-5 16 -6 36 -4 45 5 13 2 13 -10 -2 -9 -11 -16 -33 -16
-49 0 -19 -4 -27 -12 -24 -21 7 -11 74 14 101 52 54 90 37 122 -54z m2925 55
c26 -26 35 -95 14 -102 -9 -3 -13 5 -13 24 0 16 -7 38 -15 49 -14 19 -14 19
-9 -1 3 -11 1 -31 -5 -45 l-10 -25 -1 30 c-2 30 -2 30 -10 5 -4 -14 -8 -19 -9
-12 -2 22 -21 13 -21 -11 0 -33 -28 -67 -55 -67 l-24 0 25 60 c13 33 24 68 24
79 0 26 39 53 65 45 11 -3 31 -16 44 -29z m-1953 -14 c54 -25 61 -38 21 -39
-22 -1 -40 -10 -59 -32 -33 -36 -35 -50 -9 -57 19 -5 19 -7 4 -39 -13 -27 -14
-39 -5 -59 10 -22 9 -25 -8 -25 -21 0 -37 38 -26 65 9 25 -2 17 -17 -12 -14
-25 -15 -26 -21 -6 -4 11 0 39 8 62 16 49 4 54 -24 9 l-20 -33 0 32 c0 24 10
44 35 72 27 30 31 38 16 34 -27 -7 -80 -61 -87 -90 -6 -24 -2 -54 11 -85 13
-31 -14 -20 -35 15 -31 50 -26 100 13 143 33 35 92 63 137 63 14 0 44 -8 66
-18z m1023 -12 c72 -40 95 -130 47 -186 -26 -31 -44 -27 -27 5 31 59 -9 139
-84 166 -15 5 -12 -1 12 -26 34 -36 53 -75 45 -96 -3 -9 -11 -3 -23 17 -21 34
-47 45 -29 12 5 -11 10 -39 9 -63 -1 -41 -1 -41 -11 -15 -5 15 -14 27 -19 27
-4 0 -6 -7 -3 -15 9 -24 -5 -65 -22 -65 -12 0 -14 7 -9 29 4 19 0 41 -10 60
-13 27 -13 31 -1 31 25 0 28 18 10 50 -19 32 -64 53 -91 43 -34 -13 0 19 41
38 50 24 110 19 165 -12z m-1936 -183 c97 -42 152 -189 81 -216 -30 -12 -71 5
-79 32 -9 27 -34 22 -41 -8 -10 -38 22 -64 86 -72 l53 -7 -30 -32 c-38 -41
-77 -51 -103 -28 -25 23 -43 79 -36 113 l6 27 -16 -25 -15 -25 5 25 c3 14 6
30 6 36 0 6 11 28 25 48 30 44 26 45 -21 4 l-37 -33 17 33 c23 45 56 59 107
45 45 -12 50 -3 13 26 -40 32 -80 27 -120 -13 l-35 -35 7 37 c8 43 20 61 49
72 29 12 42 12 78 -4z m1247 -6 c47 -24 71 -81 50 -120 -12 -22 -13 -22 -23
-4 -22 40 -69 46 -111 13 l-27 -21 7 26 c5 22 4 25 -12 20 -12 -4 -7 5 14 25
18 17 42 31 55 31 17 1 19 2 7 9 -24 15 -69 1 -100 -31 -32 -32 -41 -18 -14
21 17 24 66 50 97 51 10 0 35 -9 57 -20z m300 5 c30 -16 60 -51 60 -71 0 -7
-13 1 -29 17 -24 23 -38 29 -73 29 l-43 -1 40 -14 c22 -8 41 -15 42 -15 1 0 7
-10 14 -22 10 -18 9 -20 -5 -15 -13 5 -15 2 -10 -20 l7 -27 -28 22 c-38 30
-78 29 -104 -4 l-21 -26 -9 25 c-17 45 2 87 54 119 36 22 67 23 105 3z m1244
-14 c10 -11 20 -35 22 -54 l4 -35 -34 34 c-40 40 -80 45 -120 13 -37 -29 -32
-38 13 -26 51 14 84 0 107 -45 l17 -33 -37 33 c-40 35 -59 43 -33 14 9 -10 23
-34 32 -55 19 -46 20 -85 1 -42 l-14 30 5 -41 c5 -42 -12 -89 -41 -113 -22
-18 -80 3 -106 39 l-20 28 42 0 c54 1 93 29 93 68 0 35 -30 46 -40 14 -9 -28
-48 -42 -80 -30 -23 9 -25 15 -25 65 0 49 4 59 38 96 62 70 131 85 176 40z
m-1997 -62 c7 -7 55 -15 107 -20 98 -8 172 -35 207 -75 16 -18 59 -97 59 -108
0 -3 -24 19 -52 48 -55 57 -100 77 -168 75 -35 -1 -34 -1 12 -14 52 -14 89
-38 133 -86 l30 -32 -30 19 c-38 25 -102 54 -118 54 -7 0 4 -9 23 -21 41 -25
110 -89 110 -103 0 -5 -10 0 -22 11 -13 11 -39 29 -58 38 -33 17 -32 16 15
-29 33 -32 40 -41 18 -27 -39 26 -47 26 -33 0 17 -31 6 -34 -42 -7 -34 18 -44
30 -46 53 -2 25 -12 35 -50 55 -51 28 -82 67 -106 135 -15 44 -11 56 11 34z
m1113 -14 c0 -26 -48 -112 -74 -133 -14 -10 -39 -25 -55 -32 -23 -9 -31 -19
-33 -43 -2 -26 -11 -36 -46 -55 -48 -27 -59 -24 -42 7 13 25 8 26 -28 5 -20
-12 -16 -6 12 20 48 44 34 47 -22 6 -23 -17 -42 -27 -42 -22 0 12 70 77 110
102 50 31 2 17 -70 -21 l-55 -29 52 49 c35 33 67 53 105 64 51 15 51 15 17 16
-65 2 -125 -27 -175 -82 l-46 -52 16 38 c41 102 111 145 256 156 50 5 93 11
97 14 11 12 23 7 23 -8z m-2180 -25 c0 -5 -4 -10 -10 -10 -18 0 -31 -75 -18
-111 24 -72 66 -110 166 -151 l47 -19 -50 5 -50 4 35 -19 35 -20 -35 7 c-19 3
-61 16 -93 29 -67 27 -62 10 12 -37 58 -36 33 -36 -44 1 -62 30 -121 84 -148
136 -18 34 -21 25 -8 -23 22 -77 113 -149 225 -178 l51 -13 -57 3 c-100 7
-176 53 -239 143 -50 72 -34 148 45 208 19 15 55 33 78 40 54 17 58 17 58 5z
m3366 -45 c42 -32 64 -64 74 -108 10 -45 -5 -79 -63 -143 -54 -60 -124 -94
-206 -100 l-56 -4 69 20 c117 35 198 108 211 190 l6 35 -20 -36 c-31 -56 -79
-99 -146 -130 -77 -37 -102 -37 -44 -1 24 16 51 37 59 47 14 17 14 17 -19 1
-65 -34 -189 -63 -128 -30 15 8 27 16 27 17 0 1 -19 1 -42 0 l-43 -3 36 14
c147 57 213 148 174 242 -8 20 -15 38 -15 40 0 10 96 -29 126 -51z m313 -144
c-5 -35 -8 -65 -6 -68 9 -8 37 117 37 165 0 29 5 52 10 52 16 0 12 -208 -5
-274 -9 -33 -14 -61 -12 -63 2 -2 16 23 30 54 25 56 38 104 53 188 l7 40 9
-35 c17 -60 3 -128 -48 -233 -41 -86 -47 -107 -50 -175 l-4 -77 15 58 c8 31
42 111 75 177 36 70 66 146 74 182 17 82 25 45 15 -67 -8 -96 -33 -170 -92
-273 -59 -103 -78 -155 -86 -232 l-7 -65 -32 49 c-17 27 -39 72 -48 99 -15 45
-15 60 -4 131 l13 80 -37 30 c-31 27 -36 37 -36 74 0 30 7 53 24 75 38 51 76
140 88 209 l12 63 8 -50 c4 -28 3 -78 -3 -114z m-4072 -21 c14 -30 36 -69 49
-87 17 -22 24 -45 24 -74 0 -36 -5 -48 -36 -76 -32 -29 -36 -37 -30 -65 26
-123 15 -186 -48 -278 l-31 -45 -6 65 c-8 79 -24 124 -82 226 -72 128 -89 184
-93 304 l-3 105 14 -62 c8 -34 42 -116 75 -182 33 -66 66 -143 73 -171 14 -61
29 -66 22 -7 -12 90 -17 105 -63 202 -41 88 -47 108 -47 167 0 92 20 111 27
26 5 -57 58 -210 77 -222 4 -3 -1 25 -10 62 -11 42 -18 106 -18 170 -1 110 12
131 22 35 3 -32 13 -82 22 -111 18 -58 31 -68 15 -11 -6 18 -10 72 -9 119 l1
85 15 -60 c8 -33 26 -85 40 -115z m985 133 c-72 -25 -155 -112 -207 -215 -56
-113 -59 -151 -3 -44 57 108 124 179 194 205 73 28 75 27 26 -10 -23 -17 -62
-59 -86 -93 -64 -91 -65 -97 -4 -34 58 59 141 118 167 118 14 -1 14 -2 -1 -10
-16 -10 -100 -112 -132 -161 -9 -15 16 5 57 45 40 39 98 84 128 99 l54 29 -61
-59 c-68 -65 -123 -129 -89 -102 11 8 37 29 58 47 21 18 57 41 80 53 41 21 40
20 -25 -43 -70 -65 -89 -94 -40 -60 32 23 98 57 129 66 l22 7 -21 -44 c-20
-40 -26 -45 -65 -51 -23 -3 -61 -14 -85 -25 -24 -11 -61 -25 -83 -33 -23 -7
-63 -36 -93 -65 -58 -58 -64 -60 -82 -38 -20 24 -43 18 -72 -18 -35 -45 -85
-67 -150 -67 l-53 0 41 25 c44 26 50 37 100 173 71 197 191 321 309 320 28 0
27 -1 -13 -15z m2095 4 c101 -37 199 -160 248 -310 37 -110 60 -150 104 -175
l36 -22 -53 0 c-66 0 -115 22 -149 66 -27 37 -53 43 -73 19 -18 -22 -24 -20
-77 34 -37 38 -68 58 -136 86 -49 19 -107 38 -130 42 -37 5 -45 11 -64 50
l-23 44 23 -7 c31 -9 97 -43 130 -66 50 -36 28 0 -40 62 -65 60 -66 62 -26 41
23 -11 68 -42 100 -68 69 -55 46 -24 -46 66 l-66 63 55 -28 c30 -16 87 -61
127 -99 40 -39 73 -68 73 -66 0 11 -115 153 -138 171 -16 13 -19 20 -10 20 27
0 133 -76 177 -126 24 -28 38 -38 31 -24 -24 49 -92 131 -133 161 -40 29 -41
30 -12 24 84 -20 178 -108 236 -222 38 -75 48 -77 19 -4 -47 120 -140 228
-225 261 -44 17 -46 19 -20 19 17 0 44 -6 62 -12z m-1014 -34 c39 -20 52 -36
67 -86 11 -38 6 -97 -9 -97 -5 0 -11 18 -14 40 -6 44 -31 90 -49 90 -7 0 -5
-7 4 -17 19 -22 33 -72 15 -54 -18 18 -27 13 -18 -11 11 -31 -4 -80 -32 -107
l-24 -22 -28 32 c-22 26 -26 41 -23 75 2 30 0 40 -9 37 -18 -7 -16 18 3 45 8
12 10 22 5 22 -17 0 -40 -42 -47 -87 -4 -24 -10 -43 -14 -43 -16 0 -21 59 -10
97 15 49 28 66 65 86 39 21 78 21 118 0z m-552 -99 c27 -9 49 -17 49 -18 0 -1
-29 0 -65 2 -55 4 -70 1 -107 -21 -50 -29 -83 -71 -104 -129 -22 -63 -16 -79
9 -20 47 112 106 152 204 137 l48 -7 -58 -18 c-32 -10 -60 -20 -62 -22 -2 -2
37 -3 85 -3 59 0 93 -4 102 -13 10 -10 9 -12 -7 -11 -11 1 -29 1 -40 0 -16 -1
-13 -5 13 -18 18 -9 39 -28 47 -43 12 -24 12 -29 -9 -55 -24 -30 -29 -27 -40
17 -9 39 -52 85 -91 98 -30 10 -41 9 -73 -7 -20 -10 -37 -25 -37 -33 0 -15 13
-16 70 -5 44 9 75 -23 75 -77 0 -35 -6 -47 -39 -78 -53 -51 -107 -60 -170 -28
-79 41 -100 116 -61 220 24 64 59 104 114 129 51 23 83 24 147 3z m1150 -10
c74 -41 119 -123 119 -220 0 -56 -34 -104 -91 -127 -38 -16 -51 -17 -89 -7
-94 25 -138 112 -89 175 23 28 26 28 102 9 36 -9 37 19 1 43 -34 22 -90 20
-121 -4 -23 -17 -54 -66 -68 -108 -6 -19 -8 -18 -30 9 -23 29 -23 31 -7 58 9
15 30 34 46 42 31 15 31 16 6 17 -14 1 -28 1 -32 0 -5 0 -8 3 -8 8 0 14 84 24
143 18 61 -7 44 8 -32 28 l-46 12 48 8 c97 15 158 -24 203 -131 24 -55 25 -56
19 -19 -9 54 -46 116 -92 151 -34 26 -45 29 -115 29 -42 0 -75 1 -74 2 1 1 20
9 41 16 63 23 112 20 166 -9z m-3020 -158 c5 -28 26 -86 46 -130 20 -45 42
-101 49 -126 l12 -45 1 40 c0 38 -8 84 -23 130 -4 11 2 4 13 -15 37 -65 44
-128 25 -232 -9 -51 -27 -129 -40 -172 -50 -168 -11 -131 46 44 18 52 34 97
37 100 16 14 -10 -136 -36 -212 -16 -49 -26 -88 -21 -88 5 0 25 32 44 71 27
54 37 67 43 54 6 -16 3 -28 -23 -90 -11 -27 57 51 85 98 32 53 36 46 6 -13
-14 -27 -24 -50 -22 -50 2 0 23 27 47 60 24 33 45 60 46 60 2 0 -4 -16 -12
-36 -21 -49 -10 -55 15 -7 l20 38 -6 -55 c-6 -62 6 -60 28 5 13 37 14 38 17
13 2 -15 -7 -49 -19 -75 -19 -40 -23 -44 -26 -25 -6 31 -27 28 -58 -9 -14 -18
-60 -52 -102 -78 -90 -54 -113 -82 -120 -145 -3 -25 -9 -46 -13 -46 -13 0 -58
75 -69 116 -19 68 -14 145 21 294 2 11 -5 14 -24 13 -16 -1 -28 0 -28 3 0 3
21 45 46 95 43 82 46 93 41 141 -3 29 -21 100 -41 157 -24 68 -36 122 -36 157
0 68 14 106 18 49 1 -22 7 -62 13 -89z m4759 50 c0 -45 -10 -90 -36 -167 -52
-150 -51 -200 4 -306 23 -44 42 -84 42 -87 0 -4 -11 -4 -25 0 -30 7 -30 4 -10
-91 29 -138 14 -239 -48 -319 -14 -19 -15 -17 -22 24 -4 25 -15 55 -23 68 -19
28 -105 93 -147 110 -16 7 -41 28 -55 47 -29 40 -57 45 -63 13 -3 -19 -7 -15
-26 25 -12 26 -21 60 -19 75 4 24 5 25 12 7 4 -11 14 -33 22 -50 14 -30 14
-29 10 23 -3 28 -3 52 -1 52 3 0 14 -18 25 -40 28 -54 34 -51 10 6 -27 62 -25
65 10 13 16 -24 39 -55 50 -69 18 -21 17 -17 -5 28 -14 28 -23 52 -21 52 2 0
18 -22 35 -48 17 -27 42 -59 56 -72 l25 -23 -16 41 c-9 22 -14 49 -10 58 5 13
15 1 41 -51 35 -69 66 -111 51 -70 -33 92 -67 230 -64 262 3 36 5 33 30 -47
15 -47 39 -107 53 -135 l25 -50 -5 43 c-3 24 -16 81 -30 126 -47 165 -49 254
-8 349 22 50 26 42 8 -18 -8 -26 -15 -67 -14 -89 l1 -41 10 35 c6 19 27 76 48
125 48 112 60 157 60 218 0 30 4 46 10 42 6 -3 10 -34 10 -69z m-2473 -23 c38
-25 53 -59 53 -118 0 -31 -5 -65 -11 -77 -11 -20 -11 -20 -32 0 -12 11 -32 25
-45 32 -14 7 -21 17 -18 26 3 8 2 14 -3 14 -4 0 -7 10 -6 23 1 12 -5 25 -13
28 -11 4 -5 12 21 28 21 12 37 24 37 26 0 7 -74 -7 -94 -17 -16 -9 -18 -18
-13 -64 4 -44 3 -54 -9 -54 -8 0 -12 4 -9 10 3 5 1 35 -4 65 -6 30 -8 62 -5
70 13 34 104 39 151 8z m296 5 c15 -8 16 -17 10 -61 -4 -29 -7 -62 -6 -74 0
-13 -5 -23 -11 -23 -9 0 -11 16 -8 54 4 45 1 56 -14 64 -22 11 -94 25 -94 18
0 -2 16 -15 37 -27 25 -16 32 -24 22 -28 -8 -3 -15 -22 -16 -41 -1 -21 -9 -39
-19 -45 -9 -5 -29 -20 -45 -33 -27 -22 -28 -22 -38 -3 -16 29 -13 117 4 150
29 57 117 81 178 49z m-484 -77 c15 -69 -5 -142 -55 -200 -40 -46 -41 -52 -14
-76 31 -28 25 -58 -16 -87 -30 -22 -39 -24 -59 -14 -22 10 -22 12 -8 28 20 23
10 23 -25 1 l-27 -17 30 34 30 33 -49 -27 c-27 -14 -51 -24 -54 -21 -3 3 -1 5
5 5 6 0 32 26 59 57 l49 57 -68 -48 c-78 -56 -101 -58 -27 -3 53 40 122 120
146 171 l14 31 -17 -25 c-41 -56 -81 -95 -187 -179 -112 -89 -155 -137 -175
-201 -6 -19 -20 -46 -31 -60 l-19 -25 13 55 c32 135 70 184 249 318 143 107
190 161 202 234 9 49 17 38 34 -41z m608 -51 c32 -43 41 -51 179 -154 109 -82
166 -141 198 -203 17 -34 48 -144 42 -150 -6 -6 -42 59 -55 98 -16 51 -62 102
-154 172 -85 64 -171 144 -201 187 -9 14 -7 5 6 -19 24 -46 94 -124 163 -180
49 -41 0 -14 -58 32 -56 43 -54 28 4 -31 28 -29 49 -52 46 -52 -2 0 -26 12
-53 27 l-49 26 30 -33 30 -34 -27 17 c-16 10 -28 13 -28 8 0 -5 5 -13 11 -17
7 -4 2 -11 -13 -18 -20 -10 -28 -9 -60 12 -45 29 -49 59 -12 91 l25 22 -35 39
c-65 72 -83 152 -56 250 l13 45 14 -50 c8 -27 26 -66 40 -85z m-1297 31 l-35
-30 60 24 c64 26 95 31 95 15 0 -5 -3 -10 -7 -10 -5 -1 -26 -17 -48 -36 -39
-34 -39 -35 -8 -20 54 27 51 18 -4 -14 -28 -16 -78 -55 -110 -86 -53 -51 -54
-53 -13 -22 70 52 98 68 156 88 63 22 69 19 17 -9 -21 -11 -34 -20 -29 -21 6
0 -17 -16 -50 -36 -32 -19 -70 -47 -84 -61 l-25 -26 35 22 c58 37 133 69 175
75 38 6 36 4 -27 -27 -84 -41 -93 -50 -32 -31 80 24 94 15 26 -16 -35 -16 -80
-42 -100 -58 -20 -16 -54 -32 -74 -36 -46 -8 -91 -45 -124 -102 -25 -42 -67
-84 -85 -84 -5 0 2 16 15 35 15 22 29 63 35 108 20 125 49 165 191 258 28 18
22 49 -10 49 -27 0 -18 14 32 51 53 38 72 38 28 0z m1968 -25 l24 -21 -24 -5
c-43 -11 -31 -34 42 -84 99 -68 116 -93 140 -211 11 -58 28 -111 40 -127 11
-15 18 -28 15 -28 -20 0 -50 28 -85 79 -48 71 -80 98 -129 107 -20 4 -53 20
-73 36 -20 16 -65 42 -100 58 -49 23 -57 29 -37 30 15 0 45 -7 68 -15 62 -22
49 -10 -30 26 -39 18 -67 35 -60 37 20 7 116 -27 176 -63 l60 -35 -35 31 c-19
17 -54 42 -77 56 -24 14 -43 29 -43 34 0 5 -17 18 -37 29 -25 14 -30 18 -13
14 57 -15 129 -54 185 -99 l60 -48 -53 55 c-30 31 -81 72 -115 92 -63 37 -71
48 -14 21 31 -15 31 -15 -8 19 -22 20 -43 36 -47 36 -5 0 -8 5 -8 11 0 15 63
3 115 -23 l40 -20 -30 33 -30 33 30 -18 c17 -10 40 -28 53 -40z m-2538 -71 c0
-8 -5 -17 -11 -21 -7 -4 -7 -10 -1 -16 6 -6 8 -33 5 -63 -5 -43 -1 -63 21
-110 14 -31 23 -61 20 -67 -3 -5 -25 -6 -50 -2 -41 6 -44 5 -44 -16 0 -12 14
-48 32 -79 20 -34 42 -99 59 -169 26 -106 26 -117 13 -162 -13 -44 -89 -160
-104 -160 -4 0 -4 17 0 38 8 51 -6 108 -40 162 -32 50 -31 49 -177 168 -114
93 -142 134 -150 222 l-6 55 39 -74 c33 -63 55 -88 144 -166 64 -55 122 -116
149 -155 24 -36 40 -54 36 -40 -17 58 -65 128 -146 214 -94 99 -121 143 -138
224 -18 86 -12 92 18 20 31 -73 81 -146 131 -193 32 -29 31 -28 -9 31 -55 82
-86 156 -105 247 -21 99 -19 115 4 49 20 -55 111 -234 117 -229 1 2 -9 32 -23
68 -29 75 -54 172 -54 214 0 20 10 2 30 -58 27 -79 66 -167 73 -167 2 0 -4 30
-13 68 -10 37 -20 94 -24 127 l-6 60 28 -70 c30 -75 66 -143 58 -110 -11 40
-26 128 -25 144 0 9 14 -20 30 -64 l28 -80 -5 57 c-4 33 -2 64 5 75 10 17 10
17 11 -2 0 -11 5 -27 11 -35 8 -12 9 -8 5 15 -3 17 -8 39 -11 50 -6 19 -2 20
34 17 26 -3 41 -9 41 -17z m3121 -24 c-6 -11 -11 -28 -10 -38 0 -12 6 -6 15
15 8 17 17 32 20 32 4 0 4 -32 0 -72 -3 -39 -4 -70 -2 -67 3 2 16 38 30 79 33
101 34 50 0 -85 -8 -32 37 54 63 120 l23 60 -6 -60 c-3 -32 -14 -90 -23 -127
-10 -37 -16 -68 -14 -68 7 0 49 92 75 165 l29 80 -6 -55 c-5 -46 -27 -120 -70
-235 -4 -11 10 7 31 40 21 33 52 98 70 145 36 92 42 84 19 -24 -17 -79 -56
-166 -109 -246 l-38 -55 42 40 c49 48 94 116 127 193 l24 57 -6 -55 c-10 -88
-42 -147 -135 -247 -83 -89 -141 -172 -155 -223 -4 -14 11 2 33 35 22 34 85
99 143 151 106 92 148 143 175 211 l14 38 -4 -55 c-7 -89 -34 -127 -169 -239
-70 -58 -137 -123 -157 -152 -30 -45 -35 -61 -38 -124 l-4 -73 -28 32 c-44 49
-80 125 -80 167 0 64 45 231 78 290 18 31 32 66 32 78 0 22 -3 23 -44 17 -26
-4 -47 -3 -50 3 -4 6 5 33 19 61 20 40 26 64 24 109 -1 32 1 63 5 69 3 6 2 13
-4 17 -23 14 -9 34 28 37 40 3 50 -8 33 -41z m-1711 4 c61 -32 89 -140 53
-208 l-16 -32 -10 35 c-11 43 -29 64 -68 80 -27 12 -42 50 -19 50 6 0 9 5 8
12 -2 6 8 14 22 18 l25 6 -26 6 c-15 2 -42 0 -60 -6 -26 -9 -37 -20 -48 -51
-18 -51 -18 -50 -35 -36 -12 10 -9 20 21 64 19 29 42 58 51 65 22 16 67 15
102 -3z m324 9 c9 -3 33 -32 55 -64 29 -43 37 -60 28 -69 -18 -18 -24 -13 -31
24 -9 45 -39 65 -96 64 l-45 -1 34 -10 c23 -6 30 -12 22 -17 -10 -6 -9 -10 3
-14 25 -10 14 -30 -26 -48 -38 -18 -74 -70 -64 -95 10 -27 -14 -14 -29 16 -45
88 18 218 107 220 14 0 33 -3 42 -6z m-1387 -83 c-14 -17 -31 -47 -38 -66 -10
-28 -20 -36 -46 -41 -62 -12 -110 46 -84 102 17 37 34 30 27 -11 -8 -43 7 -46
24 -5 12 29 39 51 67 56 6 1 19 7 30 12 13 8 22 7 32 -3 12 -12 10 -18 -12
-44z m2413 41 c0 8 5 5 11 -5 6 -9 14 -15 19 -12 4 3 17 -13 27 -35 22 -49 37
-52 29 -5 -4 19 -3 35 2 35 17 0 32 -25 32 -52 0 -77 -119 -109 -135 -36 -4
16 -20 45 -37 64 -25 28 -28 37 -18 49 11 13 16 13 41 -1 22 -11 29 -12 29 -2z
m-1930 -82 c0 -6 -6 -13 -12 -15 -94 -33 -136 -53 -179 -87 -28 -22 -48 -42
-45 -45 3 -4 14 1 23 9 26 23 99 58 120 58 14 0 13 -4 -8 -18 -48 -33 -121
-107 -163 -167 -57 -81 -66 -99 -22 -48 37 42 126 113 142 113 5 0 5 -4 -1 -8
-20 -15 -60 -65 -45 -57 8 4 -10 -19 -41 -51 -56 -60 -109 -127 -109 -139 0
-4 27 18 61 49 33 31 75 63 92 72 31 16 30 14 -13 -30 -24 -25 -40 -46 -34
-46 5 0 16 6 24 13 7 6 -1 -7 -18 -30 -18 -23 -52 -51 -77 -63 -41 -20 -69
-46 -103 -96 -10 -16 -12 -4 -9 71 3 72 9 102 31 152 16 34 37 70 47 79 34 31
18 65 -21 44 -27 -14 -25 -6 9 43 80 117 190 183 344 206 4 0 7 -4 7 -9z
m1500 -12 c87 -26 159 -79 232 -171 43 -55 48 -73 17 -56 -26 13 -50 -3 -34
-25 75 -98 95 -159 94 -274 0 -56 -2 -64 -12 -48 -29 47 -70 85 -106 99 -22 9
-52 34 -71 59 -19 24 -27 37 -20 31 8 -7 19 -13 24 -13 6 0 -10 21 -34 46 -33
34 -38 43 -20 34 36 -18 140 -101 140 -111 0 -5 5 -9 11 -9 15 0 -25 55 -96
129 -33 35 -53 60 -45 56 13 -8 13 -7 0 11 -8 10 -23 30 -35 43 -11 14 7 4 41
-22 34 -25 76 -63 93 -84 39 -45 31 -29 -20 47 -20 30 -70 86 -110 124 -51 48
-66 67 -49 61 33 -10 78 -33 115 -58 l30 -21 -24 27 c-37 41 -95 77 -163 102
-108 39 -75 58 42 23z m-947 -59 c17 -24 18 -30 6 -63 -8 -23 -19 -36 -31 -36
-10 0 -41 -9 -69 -20 -29 -10 -56 -17 -61 -14 -15 10 -8 32 17 52 14 11 25 25
25 31 0 6 10 11 23 11 18 0 19 2 7 10 -11 7 -3 10 30 10 35 0 42 3 32 13 -7 6
-33 12 -57 12 -51 0 -54 2 -22 15 38 16 78 7 100 -21z m398 14 c4 -4 -12 -8
-36 -8 -25 0 -50 -6 -57 -13 -9 -9 -3 -12 31 -12 25 0 40 -4 36 -10 -3 -5 3
-10 15 -10 12 0 18 -4 15 -10 -4 -6 5 -20 19 -31 26 -21 33 -43 17 -53 -4 -3
-33 3 -64 14 -31 11 -63 20 -71 20 -7 0 -17 11 -20 24 -3 13 -8 30 -11 38 -3
8 4 27 16 42 19 25 27 28 62 23 22 -3 43 -9 48 -14z m-1580 -27 l34 -14 -47
-12 c-26 -7 -56 -23 -70 -38 l-23 -26 25 16 c14 8 40 17 57 20 27 4 30 2 21
-9 -9 -11 -6 -12 16 -4 17 7 26 7 26 1 0 -6 9 -10 20 -10 11 0 20 -6 20 -13 0
-13 -56 -97 -64 -97 -11 0 -156 73 -156 79 0 3 7 15 15 25 8 11 12 29 9 42 -5
17 1 26 23 38 35 19 52 20 94 2z m2755 -7 c8 -6 14 -26 14 -45 0 -18 5 -36 10
-39 20 -13 8 -24 -66 -59 -42 -20 -78 -36 -80 -36 -8 0 -64 84 -64 97 0 7 9
13 20 13 11 0 20 4 20 9 0 5 10 7 22 3 13 -3 19 -1 15 5 -9 15 68 -1 90 -18
10 -7 7 -1 -6 13 -13 15 -38 30 -55 34 -46 10 -51 15 -25 31 26 15 83 11 105
-8z m-1931 -144 c-90 -126 -136 -251 -119 -327 6 -30 30 -37 53 -15 11 10 12
7 5 -18 -14 -46 -9 -156 9 -197 16 -39 43 -50 53 -23 10 25 18 18 52 -49 47
-92 38 -102 -20 -23 -28 39 -32 32 -12 -18 7 -18 6 -19 -11 -5 -23 18 -78 104
-93 145 l-12 30 5 -35 6 -35 -16 28 c-21 36 -45 148 -45 212 -1 40 -3 46 -11
32 -7 -12 -8 -41 -2 -87 5 -38 6 -67 2 -64 -16 9 -33 115 -33 204 0 54 -3 84
-7 70 -13 -45 -9 -185 6 -245 20 -75 67 -164 123 -229 31 -36 27 -33 -15 11
-73 78 -117 150 -150 244 -21 62 -25 86 -21 159 3 69 9 94 32 137 35 64 92
124 140 147 37 18 116 35 128 29 4 -2 -17 -37 -47 -78z m1060 58 c59 -20 123
-81 162 -155 26 -49 28 -62 28 -163 l0 -110 -47 -96 c-34 -70 -64 -113 -113
-165 -54 -56 -58 -59 -21 -15 57 69 101 151 121 226 18 73 18 216 -1 270 -7
22 -12 29 -9 15 21 -123 14 -228 -19 -301 l-16 -34 4 30 c14 95 16 129 7 115
-5 -8 -12 -44 -16 -80 -4 -36 -18 -90 -31 -120 -21 -48 -24 -50 -19 -20 5 33
4 32 -19 -15 -24 -51 -104 -147 -91 -110 18 52 16 57 -12 20 -54 -73 -69 -74
-30 -3 19 37 37 73 40 80 3 10 10 8 25 -5 28 -25 39 -16 58 50 16 54 15 117
-2 171 -6 21 -5 22 20 11 14 -7 29 -9 34 -5 4 4 7 38 6 74 -1 81 -28 146 -109
263 -30 44 -55 82 -55 85 0 10 60 3 105 -13z m778 -263 c-12 -32 -18 -101 -23
-240 -4 -107 -11 -206 -14 -220 -4 -15 1 -10 15 15 31 56 47 122 61 260 13
117 13 119 19 60 3 -33 12 -113 18 -178 13 -113 10 -153 -14 -257 -11 -44 32
38 56 110 16 47 23 89 23 149 0 84 0 85 15 50 8 -19 17 -71 19 -116 5 -105
-14 -172 -80 -280 -51 -84 -67 -130 -68 -196 l0 -39 -48 40 c-68 57 -102 128
-102 215 0 58 -2 67 -18 67 -10 0 -23 -5 -29 -11 -6 -6 -16 -9 -21 -5 -19 11
-34 94 -27 144 6 45 4 52 -14 62 -28 14 -30 70 -3 70 23 0 41 67 52 191 4 51
13 95 20 102 10 10 11 7 7 -13 -9 -37 -21 -186 -14 -180 2 3 24 53 47 113 23
59 44 107 47 107 3 0 2 -8 -2 -17 -17 -42 -35 -195 -34 -286 1 -54 3 -96 6
-93 3 2 15 58 28 123 28 146 41 195 67 256 26 59 33 57 11 -3z m-2619 -155
c14 -60 31 -137 38 -170 l13 -60 3 103 c2 61 -4 140 -12 190 -8 48 -13 88 -11
90 1 2 17 -34 34 -80 50 -131 52 -133 46 -35 -4 49 -9 96 -12 105 -5 14 -4 15
8 4 8 -7 16 -45 20 -95 10 -132 27 -197 50 -197 27 0 27 -55 -1 -72 -17 -11
-19 -20 -13 -65 10 -85 -26 -176 -52 -133 -3 6 -15 10 -26 10 -17 0 -19 -7
-19 -69 0 -84 -29 -146 -98 -209 l-47 -43 -7 67 c-5 52 -15 81 -49 137 -83
142 -98 187 -99 293 0 59 24 164 38 164 4 0 7 -46 7 -103 0 -94 3 -108 34
-180 18 -43 35 -76 37 -74 2 2 -3 36 -12 76 -14 63 -15 86 -4 184 7 62 16 144
19 182 l7 70 8 -85 c12 -128 33 -226 60 -286 14 -30 27 -54 29 -54 2 0 -2 23
-9 52 -9 33 -14 109 -14 203 0 137 -3 168 -23 245 -4 14 2 7 13 -15 10 -22 31
-89 44 -150z m402 79 c-15 -42 -29 -95 -32 -118 l-5 -41 20 44 c24 51 35 51
21 0 -15 -52 -11 -58 11 -16 11 20 22 37 24 37 3 0 3 -19 -1 -42 l-6 -43 21
25 21 25 0 -22 c0 -13 5 -23 11 -23 5 0 7 -5 4 -10 -4 -6 -11 -8 -16 -4 -22
13 -40 -18 -34 -60 7 -46 -6 -90 -37 -123 -30 -32 -37 -29 -25 15 8 32 5 50
-22 128 -35 104 -37 121 -16 191 16 54 76 145 82 126 3 -7 -7 -47 -21 -89z
m1815 -24 c25 -68 22 -119 -16 -220 -23 -63 -26 -81 -18 -112 12 -46 3 -48
-31 -7 -27 31 -30 47 -26 112 2 41 -14 69 -35 61 -7 -3 -16 -1 -20 5 -3 6 1
11 9 11 10 0 13 6 10 15 -4 8 -1 15 5 15 7 0 14 -7 17 -15 12 -30 22 -14 13
22 -10 48 -5 53 16 13 21 -40 30 -33 17 14 -13 46 -8 46 18 -1 l21 -38 -7 45
c-3 25 -17 74 -30 109 -13 35 -24 71 -24 80 1 28 59 -49 81 -109z m-2941 -180
c1 -137 7 -233 15 -265 12 -47 13 -41 15 115 2 172 17 288 19 155 1 -83 16
-254 33 -380 11 -82 13 -87 21 -55 4 19 11 166 15 325 6 299 13 308 27 37 11
-194 25 -162 33 71 6 191 13 199 32 37 5 -47 13 -112 17 -145 l7 -60 7 45 c4
25 10 91 14 148 4 57 9 101 12 98 3 -3 31 -241 33 -291 1 -22 18 24 36 95 10
41 18 110 18 153 1 76 1 77 15 45 9 -23 11 -53 7 -98 -4 -36 -8 -86 -10 -112
-5 -73 -16 -117 -43 -186 l-26 -65 -27 33 c-32 39 -50 33 -50 -15 0 -19 -5
-69 -11 -111 -10 -65 -19 -87 -60 -148 -27 -39 -62 -87 -79 -106 l-30 -35 8
35 c4 19 7 72 7 116 0 81 0 82 -49 152 -57 83 -76 146 -76 254 0 97 -19 106
-54 26 l-24 -53 -13 45 c-20 66 -19 316 1 353 15 26 16 20 13 -100 l-2 -128
18 85 c11 47 26 103 35 125 l15 40 -6 -77 c-3 -43 -3 -78 -1 -78 3 0 20 39 38
87 26 69 35 83 41 68 4 -11 8 -117 9 -235z m4060 168 c18 -46 34 -85 37 -88 3
-3 3 31 0 75 -6 77 -6 79 9 46 8 -19 23 -75 34 -125 l20 -91 -3 127 c-2 117
-1 125 13 100 20 -37 21 -299 1 -357 l-14 -39 -23 52 c-35 80 -54 71 -54 -29
0 -108 -15 -163 -65 -234 -23 -33 -47 -75 -53 -94 -15 -41 -15 -111 -1 -170 5
-24 8 -45 6 -47 -6 -6 -117 141 -138 183 -12 25 -25 84 -32 144 -13 111 -26
130 -54 80 -10 -17 -21 -31 -24 -31 -4 0 -19 33 -34 73 -40 107 -65 371 -38
398 9 9 10 2 6 -28 -5 -37 15 -164 38 -248 10 -34 13 -37 19 -20 4 11 10 65
14 120 4 55 11 116 16 135 l8 35 1 -42 c2 -75 24 -243 31 -238 4 2 10 47 13
100 4 52 12 126 19 163 l13 67 7 -175 c9 -230 23 -270 33 -95 15 272 21 268
28 -20 3 -154 10 -298 15 -320 8 -39 8 -39 20 40 16 105 32 291 33 385 2 142
19 17 20 -155 2 -153 3 -158 15 -110 9 34 14 116 14 251 0 176 5 264 16 264 1
0 17 -37 34 -82z m-1035 -31 c4 -25 0 -77 -9 -126 -21 -112 -20 -167 7 -288
13 -57 22 -103 20 -103 -1 0 -11 17 -22 39 -11 21 -32 52 -46 70 -20 23 -23
31 -11 31 25 0 29 21 9 49 -35 47 -35 64 -3 163 31 92 36 157 14 212 -6 16 -4
17 14 7 14 -7 23 -25 27 -54z m-2006 21 c-14 -51 -11 -93 12 -156 44 -119 45
-137 15 -182 -27 -40 -27 -60 -1 -60 8 0 -4 -26 -32 -67 -25 -38 -46 -69 -48
-71 -1 -1 8 41 21 95 28 114 30 202 9 305 -10 43 -13 89 -9 113 8 48 11 55 29
55 11 0 12 -7 4 -32z m246 -290 c-103 -75 -212 -246 -250 -393 -15 -61 -19
-200 -6 -245 5 -16 10 15 13 85 4 75 13 129 27 170 26 71 43 94 30 39 -4 -22
-8 -57 -8 -79 0 -37 2 -34 23 35 12 41 35 98 50 125 15 28 25 42 22 33 -10
-35 -27 -140 -23 -145 3 -2 8 13 12 34 9 49 63 191 76 199 5 3 0 -18 -11 -48
-33 -86 -20 -261 25 -348 9 -18 15 -34 13 -36 -3 -2 -26 10 -52 26 -54 35 -64
36 -82 13 -16 -22 -17 -66 -3 -135 9 -46 19 -61 75 -114 69 -66 69 -74 -4 -74
-108 0 -205 109 -231 260 -37 220 52 427 249 572 36 26 70 48 75 48 6 -1 -3
-10 -20 -22z m1524 -17 c118 -81 221 -223 255 -355 36 -136 2 -323 -73 -410
-36 -42 -104 -76 -150 -76 -74 0 -78 11 -21 56 27 21 59 58 71 82 28 57 36
159 14 187 -16 20 -16 20 -67 -8 -27 -16 -52 -26 -55 -23 -3 2 5 31 17 63 15
40 24 90 27 158 4 86 2 107 -16 153 -11 28 -19 52 -16 52 9 0 39 -68 66 -150
31 -92 37 -90 15 5 -8 33 -13 61 -11 63 8 8 67 -141 89 -223 3 -11 4 14 1 55
l-4 75 16 -35 c30 -66 43 -135 44 -230 1 -122 17 -82 18 46 1 109 -21 192 -80
303 -50 93 -129 193 -174 221 -33 20 -42 30 -29 30 3 0 31 -18 63 -39z m-1832
-145 c-4 -68 -11 -136 -17 -152 -7 -16 -16 -53 -21 -82 -6 -30 -27 -84 -47
-120 -31 -57 -37 -76 -37 -130 0 -53 -2 -60 -13 -45 -7 10 -22 49 -34 87 -26
87 -21 177 16 256 15 32 26 73 26 98 0 31 4 42 15 42 18 0 20 -60 5 -140 -6
-29 -8 -55 -6 -57 7 -7 77 152 92 207 8 30 14 78 14 107 0 29 3 53 7 53 3 0 3
-56 0 -124z m2105 80 c-6 -67 14 -142 63 -241 25 -49 43 -79 40 -65 -3 14 -8
60 -12 103 -5 67 -4 77 11 77 12 0 16 -10 16 -42 0 -25 11 -66 26 -98 38 -79
43 -177 15 -262 -34 -102 -46 -111 -46 -36 -1 61 -10 91 -54 168 -47 85 -95
440 -59 440 2 0 2 -20 0 -44z m-1657 -24 c-6 -4 -26 -20 -46 -35 -112 -81 -80
-304 54 -385 58 -35 86 -37 35 -2 -49 33 -72 60 -102 118 -26 51 -14 47 28 -9
21 -28 40 -48 43 -45 4 3 -1 14 -10 24 -18 20 -67 126 -67 145 1 7 8 0 16 -15
19 -35 27 -36 14 -2 -14 35 -13 85 0 64 7 -11 10 -3 10 30 1 42 2 44 15 26 14
-19 15 -19 15 5 0 14 6 34 14 45 14 19 15 19 43 -2 35 -26 42 -54 15 -54 -63
0 -95 -106 -52 -174 12 -21 30 -36 41 -36 24 0 24 6 -3 57 -19 35 -20 45 -10
67 9 20 19 26 43 26 61 0 129 -100 129 -188 0 -24 -11 -41 -51 -79 -64 -61
-77 -67 -135 -58 -63 9 -139 81 -150 141 -3 21 -10 44 -14 49 -5 6 -11 51 -15
100 -5 80 -4 94 14 123 25 38 76 72 111 72 13 0 20 -4 15 -8z m1265 -7 c16 -8
41 -31 56 -50 26 -35 27 -38 20 -127 -4 -51 -11 -97 -15 -103 -5 -5 -12 -27
-15 -48 -9 -51 -75 -123 -125 -137 -70 -19 -89 -14 -152 47 -51 48 -59 61 -59
92 0 47 40 132 75 159 32 25 77 29 95 7 15 -18 6 -78 -15 -95 -21 -18 -18 -40
5 -40 28 0 60 56 60 105 0 54 -19 88 -55 99 -17 6 -31 11 -33 12 -8 5 21 45
40 55 18 10 24 8 35 -7 7 -10 13 -29 13 -43 1 -25 1 -25 15 -7 14 18 15 17 16
-25 0 -24 3 -38 6 -31 11 28 20 9 12 -25 -12 -54 -11 -59 7 -37 14 18 15 18 9
-6 -4 -14 -23 -54 -42 -90 -28 -51 -31 -61 -14 -46 12 11 31 35 42 53 31 50
34 33 6 -24 -27 -52 -52 -78 -107 -113 -28 -17 -30 -20 -10 -15 34 10 82 40
114 72 87 87 85 276 -2 340 -21 15 -41 31 -46 35 -17 14 34 9 64 -7z m-496
-101 c23 -4 27 -7 15 -15 -10 -6 -6 -9 16 -10 26 0 27 -2 10 -9 l-20 -9 20 -1
c11 -1 -9 -12 -45 -25 -78 -28 -69 -30 36 -9 47 9 99 27 127 45 27 16 56 29
65 29 28 0 -38 -59 -103 -91 -86 -42 -157 -52 -330 -46 -167 5 -230 22 -307
80 -74 57 -61 76 19 28 28 -18 80 -36 127 -45 105 -21 114 -19 36 9 -36 13
-56 24 -45 25 l20 1 -20 9 c-17 7 -16 9 10 9 21 1 26 4 16 10 -10 6 2 12 40
21 30 6 74 19 99 28 43 17 46 17 115 -5 38 -13 83 -25 99 -29z m-1723 -221
c16 -84 29 -155 29 -159 0 -4 2 -5 5 -2 3 3 -6 85 -21 182 -14 97 -24 182 -22
188 2 6 19 -72 37 -173 35 -193 48 -239 37 -129 -17 173 -17 181 4 90 11 -47
24 -132 29 -190 5 -58 12 -114 17 -124 6 -17 4 -18 -29 -12 -19 4 -38 3 -41
-2 -3 -5 8 -47 25 -93 37 -99 41 -175 14 -264 -20 -66 -19 -67 -44 39 -15 64
-48 107 -143 190 -109 96 -168 198 -168 290 0 27 3 24 24 -27 25 -59 87 -169
93 -163 2 2 -6 25 -17 52 -23 52 -50 156 -50 189 0 11 11 -10 24 -47 26 -73
88 -194 113 -218 10 -10 8 -1 -6 27 -33 66 -67 163 -85 240 -26 114 -18 126
18 28 30 -83 84 -199 86 -183 0 3 -9 27 -20 52 -21 49 -44 157 -54 246 -5 47
1 34 40 -83 46 -142 68 -179 39 -67 -18 70 -34 222 -27 260 3 15 12 -9 24 -70
10 -51 24 -101 29 -109 8 -12 9 -10 4 9 -3 14 -8 84 -10 155 -5 144 -7 150 46
-122z m3156 115 c-3 -73 -8 -144 -11 -158 -3 -14 3 0 13 30 11 30 22 79 26
108 4 29 12 55 17 59 15 9 1 -153 -23 -261 -11 -49 -18 -90 -16 -92 2 -2 20
49 41 114 56 175 56 175 50 107 -8 -81 -30 -187 -49 -232 -8 -20 -14 -38 -12
-40 5 -5 55 106 84 187 l23 65 -6 -60 c-6 -68 -51 -209 -90 -287 -14 -29 -19
-46 -11 -38 25 24 98 166 118 228 25 80 24 26 -1 -67 -11 -40 -30 -92 -41
-115 l-20 -41 21 25 c11 14 41 66 66 115 l47 90 -7 -49 c-12 -94 -47 -150
-170 -270 -117 -115 -134 -141 -152 -241 l-7 -40 -19 60 c-29 90 -26 166 12
263 17 45 28 86 25 92 -4 6 -21 8 -40 4 l-33 -6 9 39 c5 21 9 65 9 98 1 33 12
110 25 170 27 120 26 123 10 -85 -4 -44 -1 -38 14 35 10 50 26 134 36 188 10
54 20 96 22 93 4 -4 -30 -272 -44 -341 -3 -16 -3 -27 1 -24 7 7 62 274 71 352
12 99 18 62 12 -75z m-1780 -126 c26 -31 29 -64 8 -82 -23 -19 -18 -34 24 -68
21 -17 48 -51 60 -76 20 -43 28 -115 15 -129 -3 -3 -22 10 -41 30 -52 51 -94
65 -218 72 -98 6 -117 10 -160 36 l-50 29 28 7 c20 5 38 2 60 -11 23 -12 60
-19 127 -22 67 -4 109 -11 143 -26 26 -11 47 -19 47 -17 0 11 -102 65 -135 71
-40 8 -40 8 -10 14 29 5 29 6 -20 24 -46 17 -91 44 -55 32 8 -2 31 -7 50 -10
l35 -6 -30 25 -30 26 33 -4 32 -4 -22 24 c-18 19 -19 23 -5 23 31 0 14 50 -36
107 -18 20 -15 20 54 -8 43 -17 84 -41 96 -57z m487 37 c-37 -56 -43 -79 -17
-79 15 0 15 -1 0 -18 -24 -26 -21 -33 8 -22 33 13 33 -4 0 -26 -34 -22 -27
-27 25 -15 53 12 41 0 -25 -25 -48 -18 -49 -19 -21 -24 28 -5 27 -6 -18 -18
-42 -11 -131 -60 -123 -68 2 -2 22 6 46 18 31 15 68 22 139 25 69 4 106 10
129 23 22 13 40 16 60 11 l28 -7 -50 -29 c-43 -26 -62 -30 -160 -36 -128 -8
-150 -15 -209 -69 -35 -33 -45 -37 -50 -24 -20 52 15 142 77 196 37 32 40 39
29 55 -6 10 -15 24 -18 31 -11 23 22 77 57 94 31 14 122 56 126 57 1 1 -14
-22 -33 -50z m-404 -32 c0 -35 71 -137 96 -137 22 0 64 53 82 103 12 33 22 47
35 47 15 0 17 -4 11 -17 -4 -10 -9 -37 -10 -60 -1 -37 -10 -52 -60 -109 l-58
-67 -61 68 c-51 56 -60 72 -57 96 2 16 -1 42 -6 59 -10 27 -9 30 9 30 10 0 19
-6 19 -13z m-495 -205 c29 -25 35 -36 27 -44 -28 -28 -12 -48 58 -79 80 -36
95 -61 66 -110 -17 -29 -17 -30 10 -52 80 -67 114 -101 129 -133 20 -43 22
-136 3 -188 -15 -41 -38 -60 -38 -31 0 28 -38 91 -73 122 -38 33 -68 46 -222
92 -107 32 -192 80 -271 153 -46 42 -90 103 -48 66 10 -9 40 -27 65 -40 25
-12 67 -37 94 -55 31 -21 75 -38 124 -48 115 -25 167 -44 221 -80 70 -47 62
-28 -13 32 -78 63 -107 78 -188 98 -76 19 -112 41 -90 55 10 5 31 0 62 -16 26
-13 67 -26 91 -29 l43 -6 -35 19 c-60 31 -118 73 -124 88 -4 11 -1 14 12 10
67 -20 66 -13 -3 21 -44 22 -86 47 -94 56 -17 22 -16 22 55 -7 98 -39 113 -39
44 -1 -71 41 -150 102 -150 117 0 5 12 1 28 -10 35 -25 120 -67 152 -76 14 -4
3 6 -25 23 -27 16 -68 46 -90 66 l-40 35 65 -34 c36 -19 76 -37 90 -41 21 -6
18 -2 -15 26 -34 28 -41 39 -40 70 l0 37 41 -37 c22 -20 58 -51 79 -69z m1300
70 c1 -32 -5 -42 -38 -70 -52 -43 -28 -40 63 8 l75 39 -40 -36 c-22 -19 -64
-49 -92 -65 -29 -16 -53 -32 -53 -34 0 -10 137 56 183 88 15 11 27 15 27 9 0
-16 -78 -77 -148 -116 -71 -38 -55 -38 42 1 33 13 61 22 63 20 8 -8 -63 -54
-122 -81 -39 -17 -50 -24 -30 -21 17 2 38 8 49 12 16 6 17 4 7 -14 -9 -18 -98
-78 -141 -96 -8 -3 5 -3 30 0 25 4 67 17 93 31 34 17 52 21 64 14 14 -8 12
-12 -16 -29 -18 -11 -50 -23 -72 -26 -61 -10 -139 -49 -199 -101 -71 -61 -75
-74 -11 -31 55 37 106 56 222 81 49 10 93 27 124 48 27 18 69 43 94 55 25 13
54 31 64 39 9 9 17 11 17 5 0 -19 -138 -138 -197 -169 -32 -17 -112 -47 -178
-67 -68 -20 -137 -48 -160 -64 -45 -32 -84 -84 -92 -124 -3 -16 -9 -28 -13
-28 -16 0 -40 83 -40 138 1 95 24 131 149 230 24 18 24 19 6 49 -30 51 -16 75
66 112 71 32 71 32 65 64 -6 30 -2 36 66 99 40 37 73 67 73 68 0 0 0 -17 0
-38z m565 -218 c-6 -53 -20 -129 -30 -168 -10 -39 -17 -72 -15 -74 6 -7 64
148 80 216 10 39 20 72 23 72 3 0 2 -40 -1 -88 -7 -89 -38 -217 -76 -304 -11
-27 -18 -48 -15 -48 9 0 91 182 115 255 12 39 26 74 30 79 10 12 -16 -118 -39
-191 -11 -35 -18 -63 -16 -63 3 0 20 32 39 72 40 83 45 65 11 -34 -12 -38 -21
-68 -20 -68 1 0 11 15 23 33 28 44 28 12 0 -54 -18 -41 -25 -48 -41 -43 -15 4
-28 -3 -50 -31 -26 -31 -97 -85 -113 -85 -2 0 0 12 5 26 13 33 13 109 0 155
-14 49 -51 103 -75 107 -27 5 -46 24 -69 66 -18 34 -18 36 2 88 12 29 28 76
36 103 14 49 14 48 10 -70 l-4 -120 40 80 c44 87 43 87 24 -40 -3 -25 -1 -23
17 15 11 25 30 74 41 110 11 36 24 74 28 85 14 32 -1 -72 -21 -154 -11 -41
-17 -76 -15 -79 6 -5 66 183 66 207 0 11 3 27 6 36 14 35 15 2 4 -91z m-2499
-89 c29 -83 42 -92 19 -14 -19 62 -41 190 -35 198 2 1 9 -16 15 -40 18 -67 72
-211 77 -206 2 3 -1 33 -7 67 -12 67 -6 91 10 44 6 -16 22 -51 35 -79 l25 -50
-4 125 c-2 69 -2 116 1 105 3 -11 18 -61 34 -110 l30 -91 -25 -44 c-18 -32
-33 -46 -53 -50 -62 -11 -111 -157 -85 -252 l10 -38 -38 20 c-22 11 -54 38
-72 60 -24 31 -37 40 -53 36 -17 -4 -25 2 -37 27 -8 18 -18 48 -22 67 -5 30
-5 33 6 17 33 -48 37 -48 20 -2 -11 28 -22 68 -26 90 -6 38 -5 37 23 -21 41
-88 53 -86 24 4 -13 42 -27 100 -29 127 -5 48 -4 46 24 -35 33 -98 100 -246
107 -238 3 3 -4 27 -15 53 -33 77 -60 194 -67 285 -7 97 2 100 23 9 15 -65 56
-182 74 -209 13 -21 13 -16 -10 70 -12 41 -23 118 -25 170 l-5 95 15 -65 c8
-36 24 -92 36 -125z m1020 97 c-15 -29 -14 -68 4 -102 21 -40 24 -38 18 10 -4
28 0 47 12 67 l18 27 33 -40 c39 -46 42 -69 12 -101 -47 -50 -124 -6 -135 76
-5 35 -2 46 17 66 27 28 37 26 21 -3z m441 -7 c4 -5 8 -27 8 -47 0 -48 -49
-108 -88 -108 -29 0 -72 35 -72 60 0 9 14 35 31 58 31 42 32 42 51 25 16 -15
19 -27 15 -67 l-4 -49 19 24 c19 25 21 82 3 124 -8 19 -7 19 11 5 10 -8 22
-19 26 -25z m-182 -175 c12 -29 10 -87 -4 -125 -6 -15 -2 -13 18 8 16 17 26
40 26 58 0 16 5 29 10 29 15 0 12 -48 -6 -86 -11 -22 -32 -43 -57 -55 -38 -20
-41 -20 -77 -4 -23 10 -46 31 -59 55 -22 39 -28 90 -11 90 6 0 10 -10 10 -22
0 -24 38 -94 46 -86 2 3 0 17 -6 32 -13 36 -13 79 2 111 9 21 18 25 53 25 38
0 44 -3 55 -30z m-880 -185 c21 -49 43 -107 50 -128 7 -22 18 -51 26 -65 18
-35 9 -41 -19 -14 -26 24 -47 29 -47 10 0 -7 14 -49 31 -93 37 -96 36 -162 -4
-241 -23 -45 -92 -124 -108 -124 -3 0 0 26 7 57 33 138 7 220 -104 337 -84 87
-105 117 -126 180 -22 63 -14 71 12 12 11 -25 50 -76 85 -114 35 -38 86 -97
112 -133 61 -83 62 -84 32 -23 -14 28 -51 86 -81 128 -30 41 -61 95 -69 118
-17 46 -29 108 -22 108 2 0 25 -41 51 -90 25 -50 66 -112 91 -138 l44 -47 -35
55 c-46 71 -82 162 -91 225 l-6 50 33 -75 c30 -66 108 -195 108 -178 0 3 -16
39 -35 79 -31 67 -72 216 -61 226 2 3 7 -6 11 -19 20 -63 103 -223 111 -215 3
2 -3 21 -12 43 -16 37 -44 172 -43 204 0 8 5 2 11 -15 6 -16 27 -70 48 -120z
m1701 63 c-6 -35 -20 -91 -31 -124 -27 -80 -1 -49 50 61 20 44 42 91 48 105
11 22 11 20 6 -20 -8 -58 -50 -186 -75 -226 -28 -45 -23 -54 7 -13 27 36 78
131 101 189 l13 35 -4 -46 c-7 -63 -39 -144 -87 -220 l-40 -64 49 52 c28 29
67 88 92 137 23 48 44 85 47 83 6 -7 -16 -97 -34 -131 -8 -17 -37 -60 -63 -96
-44 -60 -106 -170 -96 -170 2 0 24 28 49 63 25 34 73 92 107 129 34 38 75 92
91 120 34 63 37 51 8 -28 -16 -42 -42 -78 -104 -144 -46 -48 -93 -106 -105
-130 -29 -56 -35 -130 -18 -212 8 -38 12 -68 8 -68 -16 0 -92 91 -110 133 -37
83 -37 140 -1 230 17 43 31 84 31 92 0 21 -24 18 -45 -5 -43 -47 -35 -20 49
185 19 44 39 97 46 118 17 55 22 39 11 -35z m-1601 -34 c-25 -112 57 -289 161
-348 l34 -19 -31 34 c-43 47 -72 91 -90 136 l-15 38 20 -25 c50 -63 52 -65 31
-23 -11 24 -22 64 -25 90 -2 27 -2 40 1 30 4 -13 12 -5 31 33 27 54 30 55 83
36 l35 -13 -32 -7 c-80 -18 -111 -111 -57 -175 46 -54 70 -36 38 29 -16 31
-16 34 1 47 11 7 34 13 53 13 67 0 133 -102 118 -183 -4 -20 -22 -50 -43 -72
-35 -36 -38 -37 -94 -33 -47 3 -66 11 -96 34 -35 29 -52 56 -119 194 -31 63
-44 173 -25 209 18 32 30 17 21 -25z m1478 -49 c-3 -46 -12 -89 -28 -125 -85
-187 -123 -230 -213 -238 -46 -4 -57 -1 -85 23 -63 53 -76 108 -43 181 25 54
64 84 111 84 52 0 67 -20 46 -61 -29 -59 -10 -81 32 -36 65 70 39 160 -54 183
-24 6 -26 8 -8 14 67 24 71 23 97 -30 18 -37 27 -46 30 -33 3 10 5 2 6 -17 0
-19 -10 -60 -24 -90 -25 -55 -17 -51 27 11 l18 24 -11 -30 c-16 -45 -48 -95
-88 -139 -29 -31 -31 -36 -12 -26 110 57 198 229 174 343 -11 51 -7 63 15 45
10 -9 13 -30 10 -83z m-698 -153 c0 -18 -5 -42 -11 -53 -10 -20 -10 -20 15 -4
14 9 31 32 38 51 7 19 17 33 23 31 25 -9 -9 -74 -57 -110 -51 -38 -125 -19
-169 44 -27 37 -33 69 -15 69 9 0 18 -11 22 -24 3 -13 19 -37 36 -52 25 -24
29 -25 19 -7 -20 38 -13 85 16 115 l27 28 28 -27 c20 -19 28 -37 28 -61z
m-190 -242 l18 -55 -4 75 -4 75 30 -108 c16 -59 33 -114 37 -122 4 -7 7 34 7
93 -1 59 1 86 3 59 5 -63 20 -51 29 23 8 77 29 80 38 7 9 -73 25 -95 27 -37
l1 45 8 -40 c5 -22 7 -65 4 -95 -6 -69 6 -45 42 85 l25 90 -5 -75 c-5 -86 2
-76 40 55 l23 80 0 -75 c1 -66 -12 -142 -33 -205 -4 -11 7 6 24 39 17 32 40
90 49 128 l18 71 7 -51 c8 -61 -7 -164 -34 -235 -25 -65 -25 -69 1 -32 30 45
70 124 90 180 l18 50 0 -50 c0 -27 -4 -69 -9 -92 -10 -44 -65 -166 -100 -223
l-22 -35 27 30 c37 42 85 111 117 170 17 30 28 42 28 31 0 -11 8 -28 17 -39
17 -18 17 -19 0 -28 -9 -6 -17 -20 -17 -33 0 -33 -56 -116 -78 -116 -24 0 -40
-18 -91 -107 -45 -79 -129 -177 -170 -198 -30 -15 -48 -9 -95 34 -41 38 -110
129 -136 181 -28 57 -58 90 -82 90 -22 0 -78 83 -78 116 0 13 -8 27 -17 33
-16 9 -16 11 -1 28 9 10 18 27 20 38 3 15 9 9 27 -28 23 -47 136 -207 146
-207 3 0 -11 25 -30 55 -58 90 -96 197 -101 284 l-5 76 19 -56 c18 -52 102
-212 109 -206 1 2 -6 26 -16 53 -25 65 -40 176 -32 239 l6 50 12 -56 c10 -49
72 -204 78 -197 2 2 -5 35 -15 73 -11 39 -19 103 -18 145 l0 75 15 -50 c8 -27
23 -75 33 -105z m-416 -66 c21 -31 39 -54 41 -52 2 2 0 21 -5 43 -5 22 -7 41
-6 43 2 1 16 -18 31 -43 29 -50 42 -55 25 -11 -17 46 -13 76 11 76 15 0 19 -5
14 -19 -3 -11 4 -39 17 -65 l22 -46 -23 -24 -23 -25 31 -62 c30 -60 40 -124
25 -163 -5 -14 -12 -12 -43 12 -20 16 -64 45 -98 66 -70 42 -137 111 -164 171
-29 62 -22 73 12 22 17 -25 54 -63 82 -83 29 -21 69 -53 90 -73 69 -65 38 -20
-48 69 -78 81 -116 138 -115 172 1 7 10 -5 22 -27 22 -43 76 -105 92 -105 5 0
2 8 -6 18 -18 20 -52 86 -63 122 -4 14 11 -3 34 -36 54 -81 82 -105 51 -45
-22 45 -52 121 -46 121 2 0 20 -25 40 -56z m1026 27 c0 -16 -5 -42 -10 -58
l-10 -28 20 25 c11 14 22 33 26 43 8 26 27 21 20 -5 -19 -71 -18 -73 15 -26
19 25 39 54 46 65 21 32 -3 -44 -32 -101 l-26 -51 37 40 c20 22 44 56 54 75
11 19 19 32 20 29 1 -17 -26 -79 -52 -118 -16 -24 -27 -45 -25 -47 8 -8 89 88
103 122 21 50 25 42 7 -13 -11 -32 -40 -72 -92 -127 -88 -93 -121 -135 -71
-90 19 17 62 51 94 75 33 24 72 64 88 88 32 51 37 36 9 -26 -27 -59 -93 -127
-165 -170 -33 -20 -76 -50 -93 -66 -18 -17 -36 -27 -40 -23 -5 4 -8 33 -8 64
0 42 7 72 28 113 33 67 33 66 5 89 l-22 18 23 50 c13 28 21 58 18 66 -5 11 0
16 13 16 15 0 20 -7 20 -29z"/>
<path d="M1662 7274 c-7 -3 -38 -49 -69 -102 -31 -54 -70 -117 -86 -142 -38
-57 -22 -42 38 35 25 33 47 58 49 55 2 -3 11 2 21 10 17 14 18 14 5 -10 -10
-19 -2 -15 34 18 25 24 51 40 56 37 6 -3 10 -2 10 4 0 6 8 7 18 4 15 -6 16 -5
2 13 -8 10 7 0 34 -24 62 -54 75 -54 37 1 -54 79 -110 117 -149 101z"/>
<path d="M4504 7261 c-26 -16 -51 -43 -107 -118 -21 -28 12 -11 59 29 27 24
42 34 34 24 -14 -18 -13 -18 9 -11 16 5 21 4 17 -4 -4 -6 0 -11 10 -11 10 0
36 -17 57 -37 32 -31 37 -33 27 -13 -13 24 -12 25 7 7 11 -9 22 -15 24 -12 3
3 27 -24 53 -60 26 -36 49 -65 51 -65 8 0 -158 266 -173 278 -21 16 -31 15
-68 -7z"/>
</g>
</svg>
